SplineFontDB: 3.0
FontName: Amburegul
FullName: Amburegul Banget
FamilyName: Amburegul
Weight: Regular
Copyright: Copyright (c) 2014, Aydi Rainkarnichi @aydiriku, 100% Free. Note: "Amburegul emeseyu bahrelway bahrelway..." :P
Version: 001.002
ItalicAngle: 0
UnderlinePosition: -100
UnderlineWidth: 50
Ascent: 800
Descent: 200
sfntRevision: 0x00020000
LayerCount: 2
Layer: 0 0 "Back"  1
Layer: 1 0 "Fore"  0
XUID: [1021 828 -994197973 25607]
FSType: 8
OS2Version: 2
OS2_WeightWidthSlopeOnly: 0
OS2_UseTypoMetrics: 1
CreationTime: 1408203468
ModificationTime: 1408909868
PfmFamily: 17
TTFWeight: 400
TTFWidth: 5
LineGap: 90
VLineGap: 0
Panose: 2 0 5 3 0 0 0 0 0 0
OS2TypoAscent: 800
OS2TypoAOffset: 0
OS2TypoDescent: -200
OS2TypoDOffset: 0
OS2TypoLinegap: 90
OS2WinAscent: 1629
OS2WinAOffset: 0
OS2WinDescent: 1295
OS2WinDOffset: 0
HheadAscent: 1629
HheadAOffset: 0
HheadDescent: -1295
HheadDOffset: 0
OS2SubXSize: 650
OS2SubYSize: 699
OS2SubXOff: 0
OS2SubYOff: 140
OS2SupXSize: 650
OS2SupYSize: 699
OS2SupXOff: 0
OS2SupYOff: 479
OS2StrikeYSize: 49
OS2StrikeYPos: 258
OS2Vendor: 'PfEd'
OS2CodePages: 00000001.00000000
OS2UnicodeRanges: 00000003.00000000.00000000.00000000
MarkAttachClasses: 1
DEI: 91125
LangName: 1033 "" "" "" "FontForge 2.0 : Amburegul Banget : 16-8-2014" "Amburegul" "Version 001.000 " "" "Please refer to the Copyright section for the font trademark attribution notices." "" "" "" "" "" "" "" "" "Amburegul" "Regular" 
Encoding: UnicodeBmp
UnicodeInterp: none
NameList: AGL For New Fonts
DisplaySize: -48
AntiAlias: 1
FitToEm: 1
WinInfo: 50 25 10
BeginPrivate: 8
BlueValues 26 [-109 28 583 814 941 1199]
OtherBlues 12 [-1086 -651]
BlueScale 9 0.0022759
BlueShift 1 1
StdHW 4 [27]
StdVW 5 [173]
StemSnapH 25 [2 16 21 27 32 48 69 405]
StemSnapV 37 [167 168 171 172 173 174 175 177 192]
EndPrivate
TeXData: 1 0 0 759169 379585 253056 464519 1048576 253056 783286 444596 497025 792723 393216 433062 380633 303038 157286 324010 404750 52429 2506097 1059062 262144
BeginChars: 65537 71

StartChar: .notdef
Encoding: 65536 -1 0
Width: 500
Flags: W
HStem: 0 50<100 400> 483 50<100 400>
VStem: 50 50<50 483> 400 50<50 483>
LayerCount: 2
Fore
SplineSet
50 0 m 1
 50 533 l 1
 450 533 l 1
 450 0 l 1
 50 0 l 1
100 50 m 1
 400 50 l 1
 400 483 l 1
 100 483 l 1
 100 50 l 1
EndSplineSet
Validated: 1
EndChar

StartChar: a
Encoding: 97 97 3
Width: 504
VWidth: 1024
Flags: W
HStem: 562 20G<268.5 332>
VStem: -1.48402 139.482<129 296.939>
LayerCount: 2
Fore
SplineSet
306 582 m 1
 358 577 410 573 462 568 c 1
 424 540 385 512 347 484 c 1
 372 481 397 481 422 481 c 0
 449 481 451 454 455 432 c 0
 468 329 468 223 474 119 c 1
 433 119 392 119 352 118 c 0
 325 118 319 124 318 148 c 1
 306 132 294 115 282 99 c 0
 261 75 241 42 206 39 c 0
 162.287187079 37.178632795 101.158137056 32.8692317182 69.4396240202 32.8692317182 c 0
 66.3287924319 32.8692317182 63.5008591294 32.9106836025 61 33 c 0
 34 34 3 58 2 89 c 0
 0.045836543402 118.963839668 -1.48402082263 147.230454973 -1.48402082263 176.287336286 c 0
 -1.48402082263 191.838107238 -1.0458365434 207.615227487 0 224 c 0
 4 293 30 362 82 409 c 0
 154 470 231 525 306 582 c 1
277 430 m 5
 246 407 200 366 179 333 c 0
 138.909090909 276.681818182 137.997933884 204.873966942 137.997933884 138.450225394 c 0
 137.997933884 135.287190083 138 132.136363636 138 129 c 1
 163 163 213 209 233 255 c 0
 263 313 270 368 277 430 c 5
EndSplineSet
Validated: 1
EndChar

StartChar: b
Encoding: 98 98 4
Width: 745
VWidth: 1024
Flags: W
HStem: -47.4124 21G<184.244 194.716> 934 20G<4 55.5>
VStem: 557.559 151.048<252.941 486.822>
LayerCount: 2
Fore
SplineSet
30 954 m 1
 81 831 136 664 166 580 c 0
 196 497 186 499 210 494 c 1
 306 524 462 546 508 550 c 0
 524.876712646 551.43631597 549.489688663 554.67776006 575.357092185 554.67776006 c 0
 621.527886563 554.67776006 671.695132797 544.350917579 689 495 c 1
 702.331135269 451.52890673 708.607256325 405.706142056 708.607256325 359.673662161 c 0
 708.607256325 326.287021614 705.305781346 292.790062999 699 260 c 0
 674 143 572 69 480 4 c 1
 266 -128 30 -222 -206 -308 c 1
 -254 -302 -303 -296 -351 -290 c 1
 -164 -226 21 -153 196 -62 c 0
 210.662344022 -55.1418068286 216.320401497 -51.4714666582 216.320401497 -49.5208710818 c 0
 216.320401497 -47.6429390636 211.076040027 -47.3590103454 203.573342936 -47.3590103454 c 0
 200.32126676 -47.3590103454 196.644888584 -47.4123556152 192.787385945 -47.4123556152 c 0
 175.700566362 -47.4123556152 155.059994784 -46.3656949103 152 -35 c 0
 119 79 99 196 76 312 c 0
 36 531 -27 747 -127 947 c 1
 -74 949 -22 951 30 954 c 1
509 515 m 1
 476 508 463 503 409 489 c 0
 360.886349793 476.526090687 309.597221759 456.907356262 309.597221759 387.703844106 c 0
 309.597221759 379.237305448 310.364902835 370.028595944 312 360 c 0
 321.8 294.9 323.27 208.24 323.27 122.658 c 0
 323.27 85.98 323 49.5 323 15 c 1
 348 18 402 63 429 89 c 0
 504 150 552 262 556 347 c 0
 556.875136754 365.596656018 557.558807423 382.230784671 557.558807423 397.279393724 c 0
 557.558807423 451.013675978 548.842006389 484.532583349 509 515 c 1
EndSplineSet
Validated: 1
EndChar

StartChar: c
Encoding: 99 99 5
Width: 548
VWidth: 1024
Flags: W
HStem: -11 21<394.932 413.41 417.404 496.75> 569 29<292.031 345.292>
VStem: -6.9282 155.386<132.961 373.022>
LayerCount: 2
Fore
SplineSet
271 601 m 0
 302 601 334 599 366 598 c 1
 357 586 347 574 332 569 c 0
 286 557 242 531 218 489 c 0
 171 409 150 315 149 222 c 0
 148.640044543 217.680534522 148.458244992 213.320579065 148.458244992 208.944910431 c 0
 148.458244992 164.696022277 167.049498886 118.840267261 208 97 c 0
 281 57 358 24 441 10 c 0
 477 3 517 6 551 -12 c 1
 505.893697165 -15.1839743178 460.505791762 -17.5231409308 415.284591463 -17.5231409308 c 0
 375.289274694 -17.5231409308 335.424359551 -15.6933761371 296 -11 c 1
 220 3 146 31 79 68 c 0
 41 86 11 118 0 158 c 0
 -5.07179676972 178.287187079 -6.92820323028 199.110272543 -6.92820323028 220.091760878 c 0
 -6.92820323028 248.753006953 -3.46410161514 277.70983681 -0 306 c 0
 12 378 33 450 72 512 c 0
 111.442421603 576.454688961 189.75432216 601.114435184 262.420417803 601.114435184 c 0
 265.289996702 601.114435184 268.150771225 601.075979434 271 601 c 0
EndSplineSet
Validated: 1
EndChar

StartChar: d
Encoding: 100 100 6
Width: 459
VWidth: 1024
Flags: W
HStem: 43 59<149.493 262.208>
VStem: 1 144<141.656 304.131> 265 154<161.445 416.774>
LayerCount: 2
Fore
SplineSet
392 496 m 0
 405 426 419 354 419 283 c 0
 419 253 417 223 411 194 c 0
 395 136 366 72 307 48 c 1
 267 46 228 43 188 43 c 0
 154 43 120 45 86 53 c 0
 47 63 5 107 4 141 c 0
 2 157 1 174 1 192 c 0
 1 256 15 328 33 374 c 0
 57 434 135 479 185 515 c 1
 200 514 222 512 238 511 c 1
 206 634 176 771 142 879 c 1
 193 880 244 882 295 883 c 1
 330 754 367 613 392 496 c 0
149 246 m 0
 149 218 145 190 145 162 c 0
 145 148 146 134 149 120 c 1
 154 107 162 102 173 102 c 0
 196 102 227 127 233 140 c 0
 258 186 265 236 265 287 c 0
 265 332 260 376 254 419 c 1
 211 372 153 308 149 246 c 0
EndSplineSet
Validated: 1
EndChar

StartChar: e
Encoding: 101 101 7
Width: 500
VWidth: 1024
Flags: W
HStem: -56 27<473.808 849.125> -47 18<721.844 817.079> 508 58<228.5 291.298>
VStem: 11 149<118.649 299.794> 298 157<352.366 497.202>
LayerCount: 2
Fore
SplineSet
244 566 m 1xb8
 293 566 355 561 400 546 c 0
 439 533 455 491 455 452 c 0
 455 448 454 443 454 439 c 0
 451 393 440 343 402 312 c 0
 371 284 333 260 294 244 c 1
 250 249 206 254 162 259 c 1
 161 249 160 238 160 228 c 0
 160 159 183 89 236 44 c 1
 288 6 355 3 416 -9 c 0
 498 -21 581 -27 664 -29 c 1
 683 -26 702 -24 721 -24 c 0
 739 -24 757 -26 774 -29 c 0xb8
 814 -35 854 -42 893 -47 c 1x78
 815 -53 737 -56 659 -56 c 0
 508 -56 356 -44 206 -20 c 0
 136 -8 69 19 34 98 c 0
 18 134 11 179 11 225 c 0
 11 280 22 336 38 376 c 0
 68 447 81 500 124 534 c 0
 160 562 213 566 244 566 c 1xb8
230 458 m 0
 202 398 175 337 164 271 c 1
 210 291 265 312 283 364 c 0
 293 389 298 417 298 444 c 0
 298 462 296 481 290 498 c 1
 285 505 280 508 275 508 c 0
 257 508 237 471 230 458 c 0
EndSplineSet
Validated: 1
EndChar

StartChar: f
Encoding: 102 102 8
Width: 554
VWidth: 1024
Flags: W
HStem: 26 21G<167 193.5> 446 113.008<227.081 299.754> 817 29<388.671 469>
VStem: 40 152<27 341>
LayerCount: 2
Fore
SplineSet
373 846 m 0
 377.550960406 846.078464835 382.108077543 846.113832557 386.670385236 846.113832557 c 0
 428.422309032 846.113832557 470.608940968 843.151792443 512.489771014 843.151792443 c 0
 524.356681248 843.151792443 536.199039594 843.389605496 548 844 c 1
 469 817 l 1
 418 816 366 800 325 768 c 0
 258 721 240 636 227 560 c 1
 228.71376499 559.314494004 230.766915542 559.007533443 233.096814891 559.007533443 c 0
 251.159729291 559.007533443 285.856274983 577.457003997 308 581 c 1
 519 544 l 1
 432 518 265 447 214 446 c 1
 206 306 195 166 192 26 c 1
 142 26 91 26 40 27 c 1
 45 160 53 292 60 425 c 1
 -2 436 -64 446 -126 457 c 1
 -73 465 -21 476 30 490 c 0
 62 500 62 501 72 555 c 0
 85 628 97 710 152 765 c 0
 206.822094951 821.74567723 286.620329193 846.114877599 363.814083707 846.114877599 c 0
 366.880742649 846.114877599 369.943291159 846.076417721 373 846 c 0
EndSplineSet
Validated: 1
EndChar

StartChar: g
Encoding: 103 103 9
Width: 634
VWidth: 1024
Flags: W
HStem: -602.52 27.7108<17.5474 209.944> 561 8<480.914 511.363>
VStem: -0.0311423 155.575<142.9 388.865> 426.326 151.424<-313.333 145.224>
LayerCount: 2
Fore
SplineSet
310 570 m 0
 363.6 570 417.2 568.72 471.312 568.72 c 0
 484.84 568.72 498.4 568.8 512 569 c 0
 559 571 521 566 496 561 c 0
 432 543 363 559 300 536 c 0
 207 502 169 397 161 307 c 0
 158.995334832 281.741218883 155.543943987 254.3927229 155.543943987 227.661365917 c 0
 155.543943987 187.719850518 163.249450781 149.156147421 195 121 c 1
 234 179 230 251 231 318 c 0
 231.017294798 318.882034684 231.025616295 319.773939999 231.025616295 320.675224505 c 0
 231.025616295 343.688389396 225.600234046 372.81652368 225.600234046 399.878495395 c 0
 225.600234046 433.038188872 233.746010457 463.095704926 270 475 c 1
 281.158347712 473.47840713 292.373861963 472.985811977 303.554726099 472.985811977 c 0
 324.090196553 472.985811977 344.508780803 474.647497008 364.241613703 474.647497008 c 0
 397.313263461 474.647497008 428.458721486 469.980026837 455 445 c 1
 499 372 527 289 546 206 c 0
 565.5 107.5 577.75 6.25 577.75 -94.5 c 0
 577.75 -195.25 565.5 -295.5 536 -392 c 1
 517 -472 463 -545 385 -574 c 1
 307.548003488 -598.919338008 226.467236155 -602.519647442 145.423639892 -602.519647442 c 0
 112.488750876 -602.519647442 79.5600006106 -601.925061238 46.8834247679 -601.925061238 c 0
 40.5789739477 -601.925061238 34.2839100336 -601.947194033 28 -602 c 1
 16.5399299033 -603.03011866 5.04669904247 -603.546245476 -6.43272323985 -603.546245476 c 0
 -84.1035918815 -603.546245476 -161.142303111 -579.91793421 -223 -532 c 1
 -181 -528 -140 -524 -98 -520 c 1
 -93.0137374836 -518.575353567 -88.2107043212 -517.940002812 -83.5507409673 -517.940002812 c 0
 -48.9591686833 -517.940002812 -22.2511785558 -552.949764289 13 -560 c 1
 45.2620837204 -569.985883056 79.1467953469 -574.808859139 113.124445866 -574.808859139 c 0
 167.613574751 -574.808859139 222.341721594 -562.405247841 271 -539 c 0
 367 -490 394 -377 412 -280 c 0
 421.781622568 -218.676750824 426.326314393 -156.787346973 426.326314393 -94.864279922 c 0
 426.326314393 7.80699636103 413.832431158 110.570816671 392 211 c 0
 389.27688605 227.091127885 387.473030313 233.376834834 386.102954997 233.376834834 c 0
 381.938620534 233.376834834 381.781774423 175.306216287 372 158 c 1
 359.755743938 109.022975754 320.898149445 64.4815079132 267.960313843 64.4815079132 c 0
 264.692867608 64.4815079132 261.371780649 64.6511951053 258 65 c 0
 199 72 138 65 81 84 c 0
 23.2228305877 101.626933041 -0.0311423320416 165.284794739 -0.0311423320416 220.505671158 c 0
 -0.0311423320416 221.674398831 -0.0207259421637 222.839347239 0 224 c 0
 4 329 18 446 96 523 c 0
 152 581 238 565 310 570 c 0
EndSplineSet
Validated: 1
EndChar

StartChar: h
Encoding: 104 104 10
Width: 572
VWidth: 1024
Flags: W
HStem: -110 21G<113.42 141.518 348 504> 372.623 67.7063<238.484 298.964>
VStem: 88.3536 147.646<442.021 801.638> 348 156<-110 172.123>
LayerCount: 2
Fore
SplineSet
158 1483 m 1
 189 1410 203 1331 212 1252 c 0
 237 1000 233 746 236 493 c 0
 235.862876654 490.120409735 235.794696952 487.389152765 235.794696952 484.799353611 c 0
 235.794696952 449.200529767 248.677021252 440.329682271 272.457544423 440.329682271 c 0
 284.796633145 440.329682271 300.069843361 442.717980064 318 445 c 0
 336.860729526 447.444909383 354.257561447 451.841682241 370.446145546 451.841682241 c 0
 400.606963793 451.841682241 426.573819684 436.579995409 450 365 c 0
 487 255 497 49 504 -110 c 1
 452 -110 400 -110 348 -110 c 1
 348 43 310 314 300 348 c 0
 295.796309354 364.347685844 280.466424052 372.623426544 265.626690859 372.623426544 c 0
 249.468416778 372.623426544 233.891266456 362.811718202 233.891266456 342.925213331 c 0
 233.891266456 341.973238967 233.926962624 340.998177476 234 340 c 1
 228 258 230 141 197 65 c 0
 181.725805703 30.3784929275 155.82345422 19.8647570343 127.211801057 19.8647570343 c 0
 99.6273905699 19.8647570343 69.5247298857 29.6370971483 44 37 c 1
 -2 65 4 149 0 202 c 0
 -0.197990254202 205.316336758 -0.295530147709 208.666973639 -0.295530147709 212.044028128 c 0
 -0.295530147709 276.893654847 35.6728684317 351.484926907 87 380 c 1
 87.7464219875 458.374308683 88.3535575291 536.887903811 88.3535575291 615.43681892 c 0
 88.3535575291 747.355752907 86.6411010565 879.374308683 81 1011 c 1
 71 1168 70 1332 1 1477 c 1
 53 1479 106 1481 158 1483 c 1
EndSplineSet
Validated: 1
EndChar

StartChar: i
Encoding: 105 105 11
Width: 292
VWidth: 1024
Flags: W
HStem: 730.361 44.6387<76.3138 231.213>
VStem: 6 154.061<-66.2692 511>
LayerCount: 2
Fore
SplineSet
76 775 m 1
 120 775 164 775 208 775 c 1
 212.324706335 776.216323657 215.937088148 776.775116985 218.955629838 776.775116985 c 0
 238.272323561 776.775116985 233.270294146 753.891617322 235 734 c 1
 191 733 147 733 102 732 c 1
 98.3818384786 730.877122286 95.2617922598 730.361322598 92.5718881142 730.361322598 c 0
 77.3978706202 730.361322598 75.9118367347 746.775103347 75.9118367347 763.217189504 c 0
 75.9118367347 767.222040816 76 771.228571429 76 775 c 1
6 511 m 1
 58 511 111 511 163 511 c 1
 162 468 161 425 160 382 c 0
 160.042234941 375.580288987 160.061280609 369.157010394 160.061280609 362.730616251 c 0
 160.061280609 303.654056128 158.451777242 244.314208335 158.451777242 185.062237243 c 0
 158.451777242 98.1496563798 161.914769956 11.4261502217 179 -74 c 0
 191 -129 200 -187 225 -238 c 1
 183 -240 140 -242 98 -243 c 0
 97.3333333333 -242.944444444 96.6450617284 -242.919753086 95.9394718793 -242.919753086 c 0
 90.2947530864 -242.919753086 83.5416666667 -244.5 77.875 -244.5 c 0
 71.5 -244.5 66.5 -242.5 66 -234 c 1
 34 -134 19 -29 12 76 c 0
 8 221 11 366 6 511 c 1
EndSplineSet
Validated: 1
EndChar

StartChar: j
Encoding: 106 106 12
Width: 516
VWidth: 1024
Flags: W
HStem: -1002.61 44.4443<-110.539 1.68993> -955.489 20G<-129.856 -113.037> 875.29 58.71<52.89 158.562> 924 20G<135 168.5>
VStem: 83 160<413.767 559.778> 301.834 147.787<-505.807 -150.06>
LayerCount: 2
Fore
SplineSet
161 944 m 1xdc
 176 925 192 906 207 887 c 1
 171 884 134 882 98 879 c 1
 90.6465299748 876.442271296 83.9063702114 875.290045274 77.665137701 875.290045274 c 0
 44.8640276859 875.290045274 25.8436908553 907.115457409 4 934 c 1xec
 56 937 109 941 161 944 c 1xdc
83 567 m 1
 116 567 149 567 182 567 c 0
 235 563 237 557 243 503 c 0
 260 341 345 199 388 44 c 0
 419.547837799 -79.3870989483 449.621207347 -207.689092068 449.621207347 -335.737503223 c 0
 449.621207347 -390.338012055 444.153225263 -444.892414259 431 -499 c 1
 391 -636 324 -765 236 -878 c 0
 173.533325909 -963.775134572 66.7346504892 -1002.61050303 -37.3905198595 -1002.61050303 c 0
 -44.9470824497 -1002.61050303 -52.4895645381 -1002.40596948 -60 -1002 c 0
 -129 -996 -212 -1012 -260 -947 c 1
 -230 -945 -201 -942 -172 -940 c 0
 -155.484900732 -939.514261786 -138.026035014 -935.489399388 -121.686308279 -935.489399388 c 0
 -104.387078326 -935.489399388 -88.3422828694 -940.000837482 -76 -958 c 1
 -73.8839096594 -958.111373176 -71.7740213109 -958.166153173 -69.6706587368 -958.166153173 c 0
 3.76885725056 -958.166153173 69.252948228 -891.385088951 113 -835 c 0
 201 -710 281 -569 298 -413 c 0
 300.640792906 -389.232863849 301.833740724 -365.5139892 301.833740724 -341.847124544 c 0
 301.833740724 -213.159482989 266.563073429 -86.0095676446 237 39 c 1
 184 214 86 379 83 567 c 1
EndSplineSet
Validated: 1
EndChar

StartChar: k
Encoding: 107 107 13
Width: 658
VWidth: 1024
Flags: W
HStem: 24 21G<19.5 170.151>
VStem: -101 156<854.975 934> 20 150.432<24 160.648>
LayerCount: 2
Fore
SplineSet
55 938 m 1xc0
 96 757 139 576 152 391 c 1
 197 429 241 468 285 507 c 1
 337 502 389 498 441 493 c 1
 397 458 351 420 312 384 c 0
 273 348 239 327 198 289 c 0
 184.368217167 276.666482199 177.689089216 267.071889048 177.689089216 258.643440697 c 0
 177.689089216 241.103544694 206.61443315 228.613879746 262 207 c 0
 344 175 525 118 649 55 c 1
 598 49 546 44 495 38 c 1
 391 90 278 121 170 164 c 1
 166.796157111 150.602111557 165.713101259 137.119391633 165.713101259 123.576548112 c 0
 165.713101259 95.3078477635 170.432023458 66.7771862501 170.432023458 38.2092741529 c 0
 170.432023458 33.4735318697 170.302346762 28.7367659349 170 24 c 1
 120 24 70 24 20 24 c 1xa0
 19 112 17 201 12 289 c 0
 3 508 -43 724 -101 934 c 1
 -49 936 3 937 55 938 c 1xc0
EndSplineSet
Validated: 1
EndChar

StartChar: l
Encoding: 108 108 14
Width: 283
VWidth: 1024
Flags: W
HStem: 25 21G<68 223> 1052 20G<7 53>
VStem: 68 155<25 336.457>
LayerCount: 2
Fore
SplineSet
33 1072 m 1
 73 960 117 849 144 733 c 0
 196 501 213 262 223 25 c 1
 171 25 120 25 68 25 c 1
 68 202 59 380 32 556 c 0
 8 733 -54 903 -124 1067 c 1
 -72 1068 -19 1070 33 1072 c 1
EndSplineSet
Validated: 1
EndChar

StartChar: m
Encoding: 109 109 15
Width: 860
VWidth: 1024
Flags: W
HStem: -105 21G<793.5 821.745> 44 429.713<30.3661 163.141> 461 12<-30.0039 -6.08469> 662.053 20.1308G<548.901 577.136 588.134 617.721>
VStem: 675.245 151.479<-101.545 344.081>
LayerCount: 2
Fore
SplineSet
583 682 m 1xd8
 585.051116389 682.034764685 587.105858527 682.052609203 589.162965936 682.052609203 c 0
 646.278189136 682.052609203 705.216763959 668.296530457 739 621 c 0
 775 572 790 457 804 362 c 1
 815.120366355 254.271450935 826.723789538 145.576788215 826.723789538 37.2589540631 c 0
 826.723789538 -10.2710760632 824.489587851 -57.7285490648 819 -105 c 1
 768 -105 717 -104 666 -103 c 1
 671 -72 674 -39 675 -7 c 0
 675.161760458 5.77907618828 675.245021579 18.564693988 675.245021579 31.354207964 c 0
 675.245021579 176.693746389 664.4927129 322.536435501 636 465 c 1
 624 500 625 548 602 575 c 1
 557 518 526 449 498 382 c 1
 475 339 469 290 446 248 c 1
 414.180194847 235.97918472 374.860389693 223.95836944 337.586526086 223.95836944 c 0
 322.147186258 223.95836944 307.058874503 226.02081528 293 231 c 1
 248 258 233 320 195 348 c 1
 185 256 175 164 165 72 c 0
 160 42 156 40 125 40 c 2
 7 44 l 1xd8
 16.6182976663 152.686763629 40.1133428322 278.025624258 40.1133428322 387.983616744 c 0
 40.1133428322 392.347301857 40.0763404667 396.686763629 40 401 c 1
 37.6086905214 406.230989484 36.5799592552 410.367448929 36.5799592552 413.649748136 c 0
 36.5799592552 432.328967411 69.8967410545 423.345111582 75 431 c 1
 42 454 -1 452 -39 461 c 1
 -39.1419708678 461.319434452 -39.2108772241 461.628791041 -39.2108772241 461.928472169 c 0
 -39.2108772241 470.072245167 11.6743616218 471.070985434 30 473 c 0xb8
 37.8065200296 473.481883952 45.8824061458 473.71297879 54.1444052652 473.71297879 c 0
 131.60843082 473.71297879 225.433332362 453.397826657 267 429 c 0
 302.950565506 407.898581116 315.690904128 383.74318501 331.475674338 383.74318501 c 0
 335.888067078 383.74318501 340.538350819 385.630680655 346 390 c 1
 372 462 418 538 452 595 c 0
 484.610104474 648.71076031 521.819771724 682.183444406 575.981302439 682.183444406 c 0
 578.289754695 682.183444406 580.62900175 682.122637841 583 682 c 1xd8
EndSplineSet
Validated: 1
EndChar

StartChar: n
Encoding: 110 110 16
Width: 681
VWidth: 1024
Flags: W
HStem: 581 57<310.722 366.06>
VStem: 503 153<-135 179.797>
LayerCount: 2
Fore
SplineSet
65 641 m 1
 83 599 97 556 109 512 c 1
 135 545 164 578 199 602 c 0
 242 630 291 638 341 638 c 0
 379 638 419 633 457 630 c 1
 501 608 529 563 553 522 c 0
 606 437 622 336 633 238 c 0
 649 114 647 -11 656 -135 c 1
 605 -136 554 -136 503 -137 c 1
 498 -54 499 29 494 112 c 0
 485 215 477 320 444 419 c 0
 423 474 395 529 355 573 c 1
 349 578 344 581 339 581 c 0
 325 581 312 561 287 530 c 0
 253 487 204 402 197 327 c 1
 180 327 163 327 146 327 c 1
 161 230 168 132 175 34 c 1
 124 33 74 33 23 33 c 1
 20 98 17 164 10 229 c 0
 -6 366 -28 508 -92 632 c 1
 -40 635 13 638 65 641 c 1
EndSplineSet
Validated: 1
EndChar

StartChar: o
Encoding: 111 111 17
Width: 874
VWidth: 1024
Flags: W
HStem: 37.1611 26.0419<433.678 601.1> 641.695 25.8224<349.129 485.862> 674 20G<161.5 221>
VStem: -12.4165 156.402<157.086 307.946> 668.781 158.254<129.287 451.383>
LayerCount: 2
Fore
SplineSet
203 694 m 1
 239 692 275 690 310 688 c 0
 322.190462436 685.561907513 354.855718677 690.389064441 354.855718677 679.400438945 c 0
 354.855718677 676.867888906 353.120655094 673.495260103 349 669 c 1
 351.731326669 667.949489743 355.83108237 667.516979694 361.085953421 667.516979694 c 0
 380.842123503 667.516979694 416.925306675 673.630306154 458 676 c 0
 467.679314405 676.372281323 477.046793697 676.571320917 486.295921856 676.571320917 c 0
 526.735712165 676.571320917 564.913002345 672.76631206 617 663 c 0
 682 650 727 596 767 535 c 0
 806.089495993 475.388518611 827.034126209 393.812199703 827.034126209 317.33543286 c 0
 827.034126209 315.554074444 827.0227626 313.775482814 827 312 c 0
 823 242 826 164 797 111 c 0
 769.693557737 58.3375756349 727.169936104 38.9627311396 681.486839094 38.9627311396 c 0
 680.326531755 38.9627311396 679.164186201 38.9752300808 678 39 c 0
 608.705094196 38.5614246468 539.025491712 37.1611075915 469.298629511 37.1611075915 c 0
 380.040583661 37.1611075915 290.705094196 39.4557810042 202 49 c 0
 129 57 45 77 2 143 c 1
 -8.35227613978 162.965103984 -12.4165387864 184.433863368 -12.4165387864 206.29440273 c 0
 -12.4165387864 243.56048382 -0.605517043017 281.965103984 12 316 c 0
 63 448 120 579 203 694 c 1
328 637 m 1
 275 559 232 474 196 387 c 0
 175.87604419 333.33611784 143.814091176 280.590543157 143.814091176 220.843284912 c 0
 143.814091176 218.242343082 143.87485083 215.62813257 144 213 c 0
 143.990142733 212.477564825 143.985240917 211.956975798 143.985240917 211.438231963 c 0
 143.985240917 159.331454796 193.443577035 125.842283721 238 110 c 0
 307 86 382 84 454 73 c 1
 484.173433462 71.6284802972 515.287400071 63.2029619875 545.729450149 63.2029619875 c 0
 559.679106607 63.2029619875 573.48767361 64.9721576224 587 70 c 0
 640 88 662 123 667 198 c 0
 668.113406012 214.478408974 668.780529763 234.080793775 668.780529763 255.493147537 c 0
 668.780529763 330.237782044 660.651520322 427.037177391 635 490 c 0
 602 571 590 588 532 620 c 0
 500.264605089 637.212417579 463.321386212 641.694598798 425.372182782 641.694598798 c 0
 392.769152384 641.694598798 359.423612645 638.386335852 328 637 c 1
EndSplineSet
Validated: 1
EndChar

StartChar: p
Encoding: 112 112 18
Width: 508
VWidth: 1024
Flags: W
HStem: 771 20G<66 207.969>
VStem: -58 152<-591 -476.979> 46 126<202.292 452.661> 66.1545 157.325<710.56 790.879> 303.747 141.558<335.742 520.051>
LayerCount: 2
Fore
SplineSet
66 791 m 1x98
 110 791 154 791 198 791 c 0
 217.938693052 791 223.479867567 780.56179906 223.479867567 766.480350784 c 0x98
 223.479867567 748.859589419 214.803128866 725.533989654 214.803128866 709.817857425 c 0
 214.803128866 708.488071122 214.865248499 707.212763507 215 706 c 1
 214.746999568 703.216995247 214.622017573 700.64602103 214.622017573 698.269364769 c 0
 214.622017573 663.07049215 242.036005185 670.493999136 287 663 c 0
 336 654 375 631 416 557 c 0
 435.097940566 523.805960444 445.30503796 472.830234543 445.30503796 418.551618726 c 0
 445.30503796 353.461245181 430.626653504 283.621128773 399 234 c 0
 340 142 257 85 165 41 c 1
 150 -171 123 -383 94 -594 c 1
 44 -593 -7 -592 -58 -591 c 1xc8
 -18 -389 6 -183 22 23 c 1
 -1 26 -23 28 -45 31 c 1
 -22 42 1 53 25 64 c 1
 35 207 42 371 46 493 c 0xa8
 49.7906902539 607.668380181 66.1545465338 682.821095709 66.1545465338 775.481102304 c 0
 66.1545465338 780.59749039 66.104654873 785.767256348 66 791 c 1x98
205 614 m 1
 196 511 172 231 172 168 c 1xa8
 234.308500129 231.252568313 303.747118143 347.089756026 303.747118143 428.845851079 c 0
 303.747118143 433.689533943 303.503386346 438.413591069 303 443 c 0
 295 525 255 571 205 614 c 1
EndSplineSet
Validated: 1
EndChar

StartChar: q
Encoding: 113 113 19
Width: 766
VWidth: 1024
Flags: W
HStem: -452 65<869.149 953.726> 78 93<158.698 222.33> 690 20G<264 321.5>
VStem: 0 154<173.698 322.029>
LayerCount: 2
Fore
SplineSet
302 710 m 1
 341 707 379 704 418 701 c 0
 437 701 454 701 454 693 c 0
 454 689 449 683 435 674 c 0
 423 665 418 659 418 655 c 0
 418 645 444 643 461 635 c 1
 530 518 589 395 632 266 c 0
 691 85 742 -98 800 -279 c 0
 814 -319 822 -376 858 -376 c 0
 891 -380 934 -383 958 -387 c 0
 981 -391 995 -392 998 -397 c 0
 998 -406 928 -452 888 -452 c 0
 887 -452 l 0
 886 -452 l 0
 872 -452 868 -458 868 -468 c 0
 868 -485 880 -511 884 -531 c 1
 833 -532 783 -534 732 -536 c 1
 698 -431 667 -326 636 -221 c 0
 572 -16 520 195 434 392 c 1
 432 328 386 184 339 133 c 0
 292 82 199 88 135 79 c 0
 131 78 127 78 123 78 c 0
 63 78 13 137 4 196 c 0
 1 212 0 228 0 244 c 0
 0 291 12 340 46 400 c 0
 91 480 226 627 302 710 c 1
294 498 m 1
 278 469 185 349 171 312 c 0
 164 293 154 255 154 224 c 0
 154 195 162 171 189 171 c 0
 191 171 194 172 196 172 c 0
 261 181 294 412 294 494 c 0
 294 496 294 497 294 498 c 1
EndSplineSet
Validated: 1
EndChar

StartChar: r
Encoding: 114 114 20
Width: 492
VWidth: 1024
Flags: W
HStem: 758 12G<80.5 112.5 302.5 361.5>
VStem: 120 155<49 138.712>
LayerCount: 2
Fore
SplineSet
336 790 m 1
 387 786 438 782 489 778 c 1
 456 749 426 717 396 686 c 0
 307 596 220 496 185 372 c 1
 200 313 216 255 235 198 c 1
 257 151 265 99 275 49 c 1
 223 48 172 46 120 45 c 1
 111 87 102 129 90 170 c 0
 70 226 54 284 40 342 c 1
 34 342 21 340 22 344 c 2
 31 380 l 1
 23 418 15 456 7 494 c 0
 -9 582 -28 669 -50 755 c 1
 2 756 54 757 107 758 c 1
 118 700 131 643 142 585 c 1
 202 658 269 725 336 790 c 1
EndSplineSet
Validated: 1
EndChar

StartChar: s
Encoding: 115 115 21
Width: 690
VWidth: 1024
Flags: W
HStem: 617 26<414.131 485.422>
VStem: -16.842 155.697<202.212 320.04> 507.333 145.103<-117.889 -26.6987>
LayerCount: 2
Fore
SplineSet
382 644 m 0
 391.079689783 644.292893219 400.159379566 644.414213562 409.23906935 644.414213562 c 0
 475 643 l 1
 508 654 491 618 471 617 c 0
 399 608 327 576 282 516 c 1
 236 444 188 374 148 298 c 0
 141.799165843 286.162043882 138.855488946 273.053002004 138.855488946 259.949187274 c 0
 138.855488946 226.561849887 157.96538051 193.208446333 191 181 c 0
 296 141 405 110 509 67 c 0
 560 43 626 22 646 -38 c 0
 650.408913885 -49.904067489 652.436608868 -62.0025201945 652.436608868 -73.9739727364 c 0
 652.436608868 -116.308196625 627.079943759 -157.054262216 592 -182 c 0
 501 -249 390 -287 280 -308 c 1
 244 -303 209 -298 173 -292 c 0
 163.3314397 -290.06628794 135.901478325 -289.067386463 135.901478325 -285.387986572 c 0
 135.901478325 -285.261856191 135.93371206 -285.13257588 136 -285 c 0
 185 -278 233 -265 279 -247 c 0
 359 -214 446 -178 496 -104 c 0
 503.970927352 -94.1050557011 507.333440133 -83.6812769433 507.333440133 -73.372379651 c 0
 507.333440133 -46.1752242245 483.929634393 -19.7776682867 460 -6 c 0
 376 46 281 75 189 108 c 0
 127 135 52 144 4 196 c 0
 -10.8494232886 213.584843368 -16.8419826048 234.376482312 -16.8419826048 255.808977245 c 0
 -16.8419826048 289.222707086 -2.27677108794 324.194069071 16 351 c 0
 54 404 83 462 119 517 c 0
 172.167345177 602.067752282 273.927041706 644.149962984 371.885898537 644.149962984 c 0
 375.262496915 644.149962984 378.634579324 644.09996299 382 644 c 0
EndSplineSet
Validated: 1
EndChar

StartChar: t
Encoding: 116 116 22
Width: 613
VWidth: 1024
Flags: W
HStem: -9 28<242.454 475.076> -9 16<582.962 616.249> 696 20G<198 235.5> 1014 20G<16 173>
VStem: 22 146<66.7706 529.996 700.007 1034>
LayerCount: 2
Fore
SplineSet
16 1034 m 1xb8
 69 1034 121 1034 173 1034 c 1
 171 949 170 861 170 780 c 0
 170 758 169 741 169 728 c 0
 169 709 171 700 178 700 c 0
 183 700 191 705 205 716 c 1
 266 705 327 693 388 681 c 1
 325 641 241 593 169 572 c 1
 169 532 168 492 168 452 c 0
 168 396 169 339 170 283 c 0
 173 219 169 157 175 93 c 1
 193 34 263 25 316 19 c 0
 327 19 338 19 349 19 c 0xb8
 392 19 436 21 477 33 c 1
 622 7 l 1
 622 7 622 7 622 6 c 0
 622 -7 578 -9 544 -9 c 0
 534 -9 525 -9 518 -9 c 0x78
 501 -9 484 -9 467 -9 c 0
 432 -9 397 -9 362 -9 c 0
 286 -9 211 -7 136 4 c 0
 85 12 21 40 18 100 c 0
 18 112 18 124 18 136 c 0
 18 257 22 378 22 498 c 0
 22 524 15 530 4 530 c 0
 -8 530 -25 523 -44 522 c 1
 -106 538 -168 553 -230 568 c 1
 -144 574 -61 597 21 623 c 1
 20 760 20 897 16 1034 c 1xb8
EndSplineSet
Validated: 1
EndChar

StartChar: u
Encoding: 117 117 23
Width: 554
VWidth: 1024
Flags: W
HStem: 29 21G<366 511> 103.231 40.6955<159.3 222.237>
VStem: 3.97101 154.029<144.763 439.018> 18 156.658<172.397 439.018 439.537 479.99> 354.507 157.768<29.0006 132.37 329.814 516.806>
LayerCount: 2
Fore
SplineSet
355 519 m 1xd8
 374.05572809 517.267661083 398.363202898 516.848258845 421.18030091 516.848258845 c 0
 442.599826614 516.848258845 462.70595851 517.217856858 475.921126589 517.217856858 c 0
 481.133548212 517.217856858 485.273923238 517.160357457 488 517 c 0
 503.43489667 517 512.2750242 513.702615429 512.2750242 490.641884776 c 0
 512.2750242 488.303519505 512.184129803 485.761947052 512 483 c 0
 510 407.5 509.25 331.75 509.25 256 c 0
 509.25 180.25 510 104.5 511 29 c 1
 465 29 420 29 375 29 c 0
 357 31 357 43 357 62 c 0
 357.462475296 71.2495059115 358.13883399 81.7823122171 358.13883399 92.9060083995 c 0
 358.13883399 105.834831971 357.225148227 119.561882389 354 133 c 1
 303.83841489 110.4272867 239.698026331 103.231257194 190.795456779 103.231257194 c 0
 181.203978213 103.231257194 172.198679075 103.508079256 164 104 c 0
 113 106 90 104 59 111 c 0
 28.6006297279 116.883749085 3.97101000488 144.884875275 3.97101000488 172.37153556 c 0xe8
 3.97101000488 172.914616063 3.98062484749 173.45749573 4 174 c 0
 6 280 8 376 18 482 c 1
 67 481 115 480 164 480 c 1
 164.963523828 480.125677021 165.848074088 480.186420219 166.658870681 480.186420219 c 0
 172.717760165 480.186420219 174.658085313 476.794388631 174.658085313 471.759052691 c 0
 174.658085313 462.788330829 168.499621492 448.601869528 168.499621492 439.08790647 c 0
 168.499621492 437.598027904 168.650647317 436.222734391 169 435 c 1
 159 347 160 257 158 168 c 0
 158 149.965255654 165.932975698 143.926718462 176.5221337 143.926718462 c 0
 190.006257236 143.926718462 207.797436266 153.718333573 219 161 c 0
 263 185 287 229 308 272 c 0
 336 324 351 381 354 439 c 0
 355.219223594 447.229759257 355.602287466 455.459518514 355.602287466 463.66095928 c 0
 355.602287466 477.528557782 354.507087534 491.315192218 354.507087534 504.883962595 c 0
 354.507087534 509.617763122 354.640388203 514.325046642 355 519 c 1xd8
EndSplineSet
Validated: 1
EndChar

StartChar: v
Encoding: 118 118 24
Width: 734
VWidth: 1024
Flags: W
HStem: 604 20G<534.5 591.5>
VStem: 5 171<408.466 542.761>
LayerCount: 2
Fore
SplineSet
566 624 m 1
 617 622 667 619 718 617 c 1
 662 495 601 374 548 250 c 0
 494 131 451 4 366 -97 c 1
 320 -102 262 -110 229 -112 c 0
 225.771909452 -112.195641851 222.524681037 -112.305163301 219.281715804 -112.305163301 c 0
 189.372620672 -112.305163301 159.826148892 -102.989342047 149 -66 c 0
 131 17 108 99 87 182 c 0
 58 302 13 420 5 544 c 1
 55 544 105 544 155 544 c 1
 170 518 163 464 176 428 c 1
 210 289 248 152 284 14 c 1
 319 72 345 134 373 196 c 0
 433 340 503 481 566 624 c 1
EndSplineSet
Validated: 1
EndChar

StartChar: w
Encoding: 119 119 25
Width: 802
VWidth: 1024
Flags: W
HStem: 5.15596 379.27<323.783 450.202> 54.1457 450.854<595 719.786>
VStem: 597 152.587<250 503.479>
LayerCount: 2
Fore
SplineSet
595 505 m 1xa0
 632 505 668 505 705 505 c 0
 721 502 750 509 750 484 c 0
 749.114371768 452.412593049 748.838783709 417.600688039 748.838783709 382.548626914 c 0
 748.838783709 324.782931524 749.587251794 266.36499747 749.587251794 220.652101352 c 0
 749.587251794 200.141488358 749.436572668 182.188611699 749 168 c 0
 748 103 740 81 721 71 c 1
 695 65 675 67 649 62 c 1
 630.53823662 60.6813026157 610.337510448 54.1457168572 590.97763288 54.1457168572 c 0x60
 580.975387191 54.1457168572 571.197585312 55.8902303823 562 61 c 1
 521 97 502 152 470 196 c 1
 468.794696126 180.813171188 468.577267304 165.452011486 468.577267304 150.056602024 c 0
 468.577267304 141.367077365 468.646534349 132.666641643 468.646534349 123.980482875 c 0
 468.646534349 84.2155642413 467.194852872 44.7498584396 451 8 c 1
 433.967751685 5.90832038237 417.024791607 5.15596432275 400.117759085 5.15596432275 c 0
 360.443837881 5.15596432275 320.967751685 9.29881137395 281 10 c 1
 249 39 225 74 200 108 c 0
 106 222 26 352 -98 437 c 1
 -46 442 6 447 58 453 c 1
 160 375 231 267 311 168 c 1
 314.405890006 172.162754451 315.377193907 182.770001531 315.377193907 195.865459728 c 0
 315.377193907 213.250581509 313.665330098 235.02102343 313.665330098 251.920040449 c 0
 313.665330098 255.928652572 313.761654073 259.66315702 314 263 c 0
 314.140619667 265.812393346 314.197200299 268.723656146 314.197200299 271.712933915 c 0
 314.197200299 284.032311154 313.236223832 297.676709836 313.236223832 311.186418875 c 0
 313.236223832 341.022375888 317.92328592 370.201398264 348 383 c 1
 355.972987763 383.99662347 363.925704948 384.425670746 371.863923593 384.425670746 c 0
 419.681496542 384.425670746 466.972987763 368.857625219 515 368 c 1
 546 331 572 291 597 250 c 1
 597 335 596 420 595 505 c 1xa0
EndSplineSet
Validated: 1
EndChar

StartChar: x
Encoding: 120 120 26
Width: 668
VWidth: 1024
Flags: W
HStem: -16 21G<456 517>
LayerCount: 2
Fore
SplineSet
126 443 m 1
 177 383 230 324 285 268 c 1
 357 319 430 369 497 427 c 1
 543 423 579 419 625 416 c 0
 641 414 634 399 622 389 c 0
 538 321 445 266 363 195 c 1
 450 122 543 56 642 -0 c 1
 592 -5 542 -11 492 -16 c 1
 420 26 351 73 285 124 c 1
 249 90 216 62 179 18 c 0
 143 -27 119 -95 96 -154 c 1
 44 -153 -8 -151 -60 -149 c 1
 -42 -105 -37 -72 -8 -17 c 0
 22 37 103 115 148 151 c 0
 166 165 182 180 199 196 c 1
 122 269 41 355 -31 433 c 1
 21 436 73 440 126 443 c 1
EndSplineSet
Validated: 1
EndChar

StartChar: y
Encoding: 121 121 27
Width: 572
VWidth: 1024
Flags: W
HStem: -945.735 51.2846<-381.83 -240.598> -892 20G<-393.433 -370.461> 634 20G<405 486.5>
LayerCount: 2
Fore
SplineSet
460 654 m 1
 513 649 565 643 617 638 c 1
 551 605 512 559 481 472 c 0
 451 386 436 292 393 148 c 0
 351 3 326 -236 261 -405 c 0
 196 -574 88 -745 -21 -837 c 0
 -130 -929 -230 -942 -317 -945 c 0
 -332.480261647 -945.351824128 -347.248787044 -945.734593311 -361.234809284 -945.734593311 c 0
 -426.754546386 -945.734593311 -475.101449861 -937.33433138 -499 -878 c 1
 -493.505553499 -877.718233513 -488.130195529 -877.615099821 -482.826389616 -877.615099821 c 0
 -468.336122389 -877.615099821 -454.379926993 -878.384900179 -439.988425199 -878.384900179 c 0
 -422.25736379 -878.384900179 -403.865529385 -877.216382346 -383 -872 c 1
 -357.921304559 -887.589459328 -340.193270506 -894.450008258 -316.114580404 -894.450008258 c 0
 -304.668634232 -894.450008258 -291.787673605 -892.899776785 -276 -890 c 0
 -204 -871 -29 -692 58 -521 c 0
 144 -350 204 -11 229 91 c 0
 250.551724138 179.793103448 252.038049941 199.472057075 252.038049941 203.211447784 c 0
 252.038049941 203.809750297 252 204 252 204 c 1
 140 262 54 388 -47 461 c 1
 -8 464 31 468 70 471 c 0
 74.2413269845 471.295906534 78.3148293385 471.438581883 82.2301032756 471.438581883 c 0
 157.703558343 471.438581883 174.380897158 418.42183182 201 388 c 0
 222.130655568 363.096013081 256.929819443 317.119742521 276.171198769 317.119742521 c 0
 282.426360211 317.119742521 287.037330162 321.978647243 289 334 c 0
 313 453 350 588 460 654 c 1
EndSplineSet
Validated: 1
EndChar

StartChar: z
Encoding: 122 122 28
Width: 834
VWidth: 1024
Flags: W
HStem: -42.3928 33.3928<613.638 693.522> 492.878 24.4649<262.281 346.834>
LayerCount: 2
Fore
SplineSet
654 576 m 0
 675 575 696 574 717 571 c 1
 718.524236614 567.189408465 719.209504775 563.362682922 719.209504775 559.536218068 c 0
 719.209504775 533.237715556 686.840664797 506.951526772 672 486 c 1
 568 377 447 285 329 192 c 0
 275 148 215 109 167 59 c 0
 159.963767506 52.4177179899 157.100473602 47.2779332697 157.100473602 43.2532346686 c 0
 157.100473602 29.5460495165 190.312529593 28.7730247583 205 28 c 0
 301 22 398 23 494 16 c 1
 594 14 703 -7 793 -9 c 1
 770 -23 714 -33 670 -39 c 0
 652.502024225 -41.4415780151 632.520172115 -42.3928302292 611.941201224 -42.3928302292 c 0
 581.948851198 -42.3928302292 550.688164887 -40.3722813233 524 -38 c 0
 395 -19 280 -4 150 1 c 0
 105 4 57 -2 16 19 c 1
 5.00195728029 26.9735809718 0.65654646213 35.6275447517 0.65654646213 44.3591038495 c 0
 0.65654646213 67.3843193716 30.8737766998 90.9491192239 49 104 c 0
 214 236 394 354 533 514 c 1
 464.92913528 498.362098645 395.165924825 492.878271704 325.267117792 492.878271704 c 0
 319.17876436 492.878271704 313.08938218 492.91987655 307 493 c 1
 254 500 201 510 148 518 c 1
 158.769552622 517.585786438 172.627416998 517.343145751 187.583694397 517.343145751 c 0
 208.735064736 517.343145751 232.083261121 517.828427125 252 519 c 0
 337 522 420 544 502 565 c 0
 552 579 603 574 654 576 c 0
EndSplineSet
Validated: 1
EndChar

StartChar: A
Encoding: 65 65 30
Width: 715
VWidth: 1024
Flags: W
HStem: 13 21G<-33 123.6> 1048 20G<302 467>
VStem: 351 147<517.247 704>
LayerCount: 2
Fore
SplineSet
350 704 m 5
 314 571 276 440 234 309 c 1
 321 336 340 342 403 374 c 1
 377 475 359 578 351 682 c 0
 350 689 350 696 350 704 c 5
320 1068 m 1
 467 1062 l 1
 448 1013 431 963 415 913 c 1
 495 913 l 1
 495 836 495 759 498 682 c 0
 506 585 522 488 545 393 c 1
 608 386 l 1
 590 378 572 369 554 360 c 1
 578 267 599 212 629 126 c 0
 663 33 711 -53 767 -133 c 0
 776 -145 813 -193 824 -206 c 1
 677 -216 l 1
 597 -113 526 -3 483 121 c 0
 456 197 443 227 421 304 c 1
 343 278 288 261 211 242 c 1
 186 172 157 105 126 38 c 1
 114 13 l 1
 -33 20 l 1
 -21 44 l 1
 3 97 28 149 48 205 c 1
 34 202 19 199 4 196 c 1
 -142 216 l 1
 -72 231 -1 245 68 262 c 1
 75 281 82 301 89 321 c 0
 140 473 181 628 223 782 c 1
 255 878 284 974 320 1068 c 1
EndSplineSet
Validated: 1
EndChar

StartChar: B
Encoding: 66 66 31
Width: 721
VWidth: 1024
Flags: W
HStem: 3 21G<109.5 281> 962 54<104 168.923> 1044 20G<-42.5 105 176.188 209.137>
VStem: -42 146<681.171 924 1016 1064> 237.028 147.285<679.484 912.545> 530.953 146.855<165.208 352.918>
LayerCount: 2
Fore
SplineSet
104 962 m 1
 105 876 110 791 122 706 c 0
 128 662 137 617 146 575 c 1
 176 617 213 661 228 712 c 0
 236.333333333 742.833333333 237.027777778 770.194444444 237.027777778 800.449074074 c 0
 237.027777778 806.5 237 812.666666667 237 819 c 0
 236 850 237 883 226 914 c 0
 214 941 195 964 170 979 c 1
 147 973 126 968 104 962 c 1
-152 937 m 1
 -117 954 -80 968 -43 980 c 1
 -43 1008 -43 1036 -42 1064 c 1
 105 1064 l 1
 104 1048 104 1032 104 1016 c 1
 132.564329389 1020.83396344 161.708010906 1023.92987049 190.66725355 1023.92987049 c 0
 227.60666185 1023.92987049 264.245975725 1018.89262191 299 1006 c 1
 335 985 359 958 373 919 c 0
 383 887 383 853 384 819 c 0
 384.193712943 811.638908152 384.312376478 804.352865713 384.312376478 797.127334641 c 0
 384.312376478 767.052668078 382.25658351 738.026334039 375 709 c 0
 363 665 337 628 311 591 c 0
 293 566 275 541 255 518 c 1
 262 518 272 517 280 517 c 0
 299.277330231 511.613687141 319.11722712 509.763507561 339.291859085 509.763507561 c 0
 383.571476232 509.763507561 429.463585857 518.676229474 474.5593442 518.676229474 c 0
 481.393983564 518.676229474 488.210330789 518.471504806 495 518 c 0
 507 517 510 515 522 511 c 0
 554 491 583 466 608 438 c 0
 627 413 642 387 657 360 c 0
 669 335 674 308 676 282 c 0
 676.574165739 264.77502784 677.807664068 247.550055679 677.807664068 230.514366611 c 0
 677.807664068 217.879721975 677.129171307 205.349193578 675 193 c 0
 664 155 632 130 605 104 c 0
 570 73 536 41 500 11 c 0
 460 -23 411 -44 364 -65 c 0
 315 -85 264 -98 217 -120 c 0
 184 -136 152 -152 120 -168 c 0
 96 -181 75 -198 55 -216 c 0
 37 -234 19 -253 -2 -268 c 1
 -148 -252 l 1
 -126 -240 -108 -222 -91 -204 c 0
 -71 -185 -51 -166 -26 -152 c 0
 6 -136 38 -120 70 -103 c 0
 117 -79 168 -66 218 -48 c 0
 265 -28 313 -8 353 24 c 0
 390 53 423 86 458 117 c 0
 484 140 515 162 528 196 c 0
 530.25 206.125 530.953125 216.53125 530.953125 227.060546875 c 0
 530.953125 244.609375 529 262.5 529 280 c 0
 527 305 522 330 510 352 c 0
 496 378 481 404 461 427 c 0
 436 452 412 478 378 491 c 1
 363 493 l 1
 320 489 l 1
 301 488 l 1
 275 486 259 486 235 473 c 0
 232 471 205 454 203 454 c 0
 192 453 182 453 172 453 c 1
 205 303 244 155 281 6 c 1
 134 3 l 1
 85 198 33 393 -5 591 c 0
 -12 629 -20 666 -25 704 c 0
 -35 777 -40 851 -42 924 c 1
 -152 937 l 1
EndSplineSet
Validated: 1
EndChar

StartChar: C
Encoding: 67 67 32
Width: 712
VWidth: 1024
Flags: W
HStem: 1026 20G<237.73 336>
VStem: 4.10355 147.208<-2.37236 507.903> 15 147<-38.1604 100.408 234.391 734.044>
LayerCount: 2
Fore
SplineSet
311 1046 m 1xc0
 361 1031 427 940 459 900 c 1
 313 890 l 1
 298 906 271 944 243 975 c 1
 226 942 218 906 209 870 c 0
 186 763 169 655 159 546 c 0
 152 430 151 313 151 196 c 0
 151.225884004 188.432885881 151.311453154 180.853015866 151.311453154 173.266152661 c 0
 151.311453154 149.549170407 150.475250447 125.763848984 150.475250447 102.086231068 c 0
 150.475250447 66.2747531415 152.3880966 30.7096511681 162 -4 c 0
 173 -29 190 -48 211 -63 c 1
 232 -54 248 -43 276 -27 c 0
 374 33 466 103 558 170 c 1
 705 157 l 1
 612 89 520 19 422 -42 c 0
 404 -53 387 -65 369 -74 c 0
 319.730870894 -100.712178431 260.243137433 -117.205752507 202.040910772 -117.205752507 c 0
 162.194219164 -117.205752507 122.950058999 -109.475029499 88 -92 c 1
 55 -72 29 -45 15 -8 c 1xa0
 5.25520382004 30.4059614151 3.39644660941 69.4690927444 3.39644660941 108.624336323 c 0
 3.39644660941 132.774556687 4.10355339059 156.959818313 4.10355339059 181.047538677 c 0
 4.10355339059 186.036268908 4.0732233047 191.02081528 4 196 c 0
 4 313 5 430 12 547 c 0
 22 657 39 765 62 873 c 0
 74 924 86 983 122 1024 c 0
 128 1030 134 1040 143 1041 c 0
 174.576708265 1044.94708853 206.15341653 1045.39673652 237.730124795 1045.39673652 c 0
 311 1046 l 1xc0
EndSplineSet
Validated: 1
EndChar

StartChar: D
Encoding: 68 68 33
Width: 715
VWidth: 1024
Flags: W
HStem: -8 21G<143 323> 886 27.233<253.866 386.424> 927 20G<-14 133>
VStem: 528.797 147.187<381.274 726.615>
LayerCount: 2
Fore
SplineSet
137 845 m 1
 143 771 153 697 162 622 c 0
 189 409 252 186 326 0 c 1
 394 109 456 223 497 346 c 0
 503 368 510 390 515 412 c 0
 524.621016889 457.841315765 528.797094603 504.00292207 528.797094603 550.122287069 c 0
 528.797094603 585.494225331 526.340578301 620.841315765 522 656 c 0
 513 720 496 783 447 830 c 0
 419 855 387 877 350 886 c 0
 350 886 350 886 349 886 c 0
 277 879 202 864 137 845 c 1
-14 947 m 1
 133 947 l 1
 133 931 134 914 134 898 c 1
 166 903 197 907 228 910 c 0
 261.899653226 912.450577342 295.799306451 913.233007653 329.630827622 913.233007653 c 0
 378.632491749 913.233007653 427.491223669 911.591570443 476 911 c 1
 523 903 560 874 594 842 c 0
 642 791 659 726 670 658 c 0
 673.790481486 623.043337403 675.984546317 588.086674805 675.984546317 553.20471823 c 0
 675.984546317 505.264054434 671.840201637 457.464502012 662 410 c 0
 657 387 650 365 644 342 c 0
 597 196 519 64 436 -64 c 0
 391 -131 344 -198 286 -254 c 0
 246.848985098 -291.344044983 201.167689624 -316.353115551 150.704264769 -316.353115551 c 0
 117.386397522 -316.353115551 81.9839325252 -305.451308404 45 -280 c 0
 16 -257 -10 -230 -37 -206 c 1
 110 -194 l 1
 123 -206 137 -219 150 -232 c 1
 218 -165 272 -85 323 -3 c 1
 180 -8 l 1
 106 180 43 405 15 621 c 0
 7 682 -1 744 -7 806 c 1
 -141 822 l 1
 -98 837 -55 850 -11 863 c 1
 -13 891 -14 919 -14 947 c 1
EndSplineSet
Validated: 1
EndChar

StartChar: E
Encoding: 69 69 34
Width: 829
VWidth: 1024
Flags: W
HStem: -276.953 30.8162<208.485 499.977> -69 20G<1031 1180> 676 21G<596.5 760> 851 26<-108.567 -29.0521>
VStem: 8.82843 146.828<-212.221 196 288.571 304.428 387 812 872 922>
LayerCount: 2
Fore
SplineSet
8 922 m 1
 155 922 l 1
 155 861 l 1
 184 858 213 854 242 851 c 0
 351 834 396 821 506 814 c 0
 560 807 615 798 663 772 c 0
 702 750 733 717 760 684 c 1
 599 676 l 1
 594 696 548 716 519 746 c 1
 470 769 416 777 363 783 c 0
 272 789 245 800 155 812 c 1
 155 631 l 1
 155.414213562 597.448701448 155.656854249 563.72583002 155.656854249 529.973521341 c 0
 155.656854249 482.240548646 155.171572875 434.448701448 154 387 c 1
 181 400 209 411 237 420 c 0
 286 436 313 440 363 451 c 1
 509 430 l 1
 462 421 428 416 383 403 c 0
 327 386 275 359 223 333 c 0
 199 319 176 304 153 289 c 1
 151 216 150 143 150 70 c 0
 149.697224362 55.4667693889 149.531958355 40.9564570494 149.531958355 26.4655934345 c 0
 149.531958355 -54.7636855845 154.72498074 -135.381842792 170 -216 c 1
 204 -233 242 -241 290 -248 c 0
 296 -249 302 -249 308 -248 c 0
 317.604349625 -246.52240775 327.208699251 -246.136454929 336.813048876 -246.136454929 c 0
 386 -246 l 0
 483 -237 577 -219 671 -198 c 0
 750 -178 829 -157 906 -129 c 0
 937 -118 964 -108 992 -90 c 0
 1001 -84 1009 -77 1017 -70 c 0
 1023 -63 1028 -56 1034 -49 c 1
 1180 -58 l 1
 1175 -66 1169 -74 1164 -83 c 0
 1155 -90 1147 -99 1138 -105 c 0
 1110 -125 1085 -135 1052 -147 c 0
 975 -176 896 -197 817 -218 c 0
 732 -237 713 -244 626 -256 c 0
 530.667062267 -270.480952567 433.513829507 -276.95260701 336.297608782 -276.95260701 c 0
 272.392571315 -276.95260701 208.46031622 -274.156150693 145 -269 c 0
 108 -262 75 -255 45 -241 c 0
 38 -240 30 -235 25 -225 c 0
 6.33333333333 -133 2.33333333333 -43.6666666667 2.33333333333 50.4074074074 c 0
 2.33333333333 97.4444444444 3.33333333333 145.666666667 4 196 c 1
 -99 203 l 1
 -70 242 -34 274 6 302 c 1
 7.41421356237 379.781745931 8.82842712475 457.063491861 8.82842712475 534.552344573 c 0
 8.82842712475 566.649278299 8.58578643763 598.781745931 8 631 c 1
 8 831 l 1
 1 832 -85 850 -92 851 c 0
 -111 857 -127 868 -128 877 c 1
 -120 877 1 872 8 872 c 1
 8 922 l 1
EndSplineSet
Validated: 1
EndChar

StartChar: F
Encoding: 70 70 35
Width: 733
VWidth: 1024
Flags: W
HStem: -15 21G<16.7409 173> 641 20G<339 503.048> 1061 26<-106.892 -27.8427> 1112 20G<10 156>
VStem: 10 146<-10.0608 406 498.571 514.428 597 1022 1082 1132>
LayerCount: 2
Fore
SplineSet
5 406 m 1
 -98 413 l 1
 -69 452 -32 484 7 512 c 1
 8.63299316186 601.814623902 10.2659863237 690.962581137 10.2659863237 780.532533814 c 0
 10.2659863237 800.662921309 10.1835034191 820.814623902 10 841 c 1
 10 1041 l 1
 2 1042 -84 1060 -91 1061 c 0
 -109 1067 -125 1078 -126 1087 c 1
 -119 1087 2 1082 10 1082 c 1
 10 1132 l 1
 156 1132 l 1
 156 1071 l 1
 185 1068 214 1064 243 1061 c 0
 352 1044 398 1031 508 1024 c 0
 561 1017 617 1008 665 982 c 0
 704 960 734 927 762 894 c 1
 600 886 l 1
 595 906 549 926 520 956 c 1
 471 979 417 987 364 993 c 0
 273 999 247 1010 156 1022 c 1
 156 841 l 1
 156.845299462 806.765371804 157.154700538 772.352110814 157.154700538 737.911215234 c 0
 157.154700538 690.864076942 156.577350269 643.765371804 156 597 c 1
 182 610 210 621 238 630 c 0
 287 646 314 650 364 661 c 1
 510 640 l 1
 464 631 429 626 384 613 c 0
 328 596 276 569 224 543 c 0
 201 529 177 514 154 499 c 1
 153 426 151 353 151 280 c 0
 150.732213162 266.878444935 150.589918458 253.738962423 150.589918458 240.588753565 c 0
 150.589918458 155.524957928 156.543974962 70.0123383543 173 -14 c 1
 26 -15 l 1
 7.48176385346 79.6487625268 3.54607526433 171.475096494 3.54607526433 268.54480415 c 0
 3.54607526433 313.004888316 4.37172119604 358.564950301 5 406 c 1
EndSplineSet
Validated: 1
EndChar

StartChar: G
Encoding: 71 71 36
Width: 790
VWidth: 1024
Flags: W
HStem: -74.2483 42.2483<283.094 331.745> 910 26<359.875 447.681> 920.704 20G<295.839 329.76>
VStem: -39.2192 147<225.712 643.054> 555 147<-337 -189.155>
LayerCount: 2
Fore
SplineSet
522 -1 m 1xd8
 494 -19 465 -35 435 -50 c 0
 385.119259249 -69.1849002887 358.073286116 -74.2482995512 322.076378046 -74.2482995512 c 0
 292.402275921 -74.2482995512 256.645518911 -70.807439967 197 -69 c 0
 173 -68 149 -55 130 -44 c 0
 67 8 32 77 4 152 c 0
 -2 171 -9 190 -14 209 c 0
 -31.9554916527 280.180699052 -39.2191571667 353.006294433 -39.2191571667 425.894558162 c 0
 -39.2191571667 466.669090412 -36.9460568507 507.46323417 -33 548 c 0
 -23 637 -9 728 42 804 c 0
 49 813 55 823 62 831 c 0
 98 873 150 900 200 922 c 1
 245.047284194 936.653935822 277.428276333 940.70353411 314.249247135 940.70353411 c 0xb8
 345.27122472 940.70353411 379.444789834 937.829046545 427 936 c 0
 444 935 460 922 471 910 c 1
 344 902 l 1
 295 883 245 858 209 820 c 0
 145 750 125 643 114 546 c 0
 110.053943149 506.180699052 107.780842833 465.975331211 107.780842833 425.753215728 c 0
 107.780842833 353.852448279 115.044508347 281.898163934 133 212 c 0
 138 193 145 175 151 156 c 0
 176 95 204 29 256 -16 c 0
 264 -23 273 -29 283 -34 c 0
 285 -33 287 -32 289 -32 c 0
 373 5 451 61 516 122 c 1
 513 216 511 310 496 402 c 0
 491 428 488 453 479 478 c 1
 460 465 442 452 425 437 c 1
 279 449 l 1
 317 484 362 512 408 536 c 1
 440.187177612 547.653978101 485.309136708 560.231869165 525.762259379 560.231869165 c 0
 558.204037379 560.231869165 587.643102188 552.142530417 605 529 c 0
 631 495 636 445 643 405 c 0
 651 354 655 302 658 250 c 1
 758 246 l 1
 737 194 704 150 664 111 c 1
 666 51 670 -21 674 -81 c 0
 677 -167 684 -253 702 -337 c 1
 555 -340 l 1
 531 -228 529 -121 522 -1 c 1xd8
EndSplineSet
Validated: 1
EndChar

StartChar: H
Encoding: 72 72 37
Width: 754
VWidth: 1024
Flags: W
HStem: 931 20G<-44 104 367 517.682>
VStem: -47 147<478.522 946> 376 146<69.9034 476 547 932.812>
LayerCount: 2
Fore
SplineSet
376 524 m 1
 376 557 376 590 376 624 c 0
 375 732 376 840 367 948 c 1
 514 951 l 1
 521.363636364 861.818181818 522.033057851 772.636363636 522.033057851 683.454545455 c 0
 522.033057851 663.636363636 522 643.818181818 522 624 c 0
 523 598 523 573 524 547 c 1
 544 550 565 553 586 556 c 1
 732 535 l 1
 662 526 593 516 524 504 c 1
 523.642324657 452.852425903 523.028786011 401.576920156 523.028786011 350.264998751 c 0
 523.028786011 258.117432772 525.007454807 165.852425903 534 74 c 0
 538 41 544 8 548 -25 c 0
 571 -141 593 -261 651 -366 c 1
 504 -373 l 1
 447 -266 423 -145 401 -27 c 0
 396 6 391 40 387 73 c 0
 377.058823529 175.470588235 375.889273356 278.525951557 375.889273356 381.271728068 c 0
 375.889273356 412.885813149 376 444.470588235 376 476 c 1
 292 459 208 439 127 412 c 1
 134 334 142 257 153 180 c 1
 160 142 l 1
 13 139 l 1
 6 178 l 1
 -3 242 -10 306 -16 370 c 1
 -131 382 l 1
 -95 400 -59 415 -22 428 c 1
 -27 493 -32 558 -37 622 c 0
 -43 747 -39 668 -44 784 c 0
 -44 805 -47 867 -47 892 c 0
 -47 912 -45 928 -43 948 c 1
 104 946 l 1
 102 927 100 911 100 892 c 0
 100 868 103 804 104 784 c 0
 107 697 109 633 122 471 c 1
 206 492 289 509 376 524 c 1
EndSplineSet
Validated: 1
EndChar

StartChar: I
Encoding: 73 73 38
Width: 214
VWidth: 1024
Flags: W
HStem: 18 21G<13.5 187> 755 20G<-19 150>
VStem: -19.301 169<171.887 775> 18 169<20 188.353>
LayerCount: 2
Fore
SplineSet
150 775 m 1xe0
 150 698 150 622 150 545 c 0
 149.798989873 530.627775935 149.698992424 516.265653139 149.698992424 501.912616381 c 0
 149.698992424 373.456561998 157.708586078 245.728280999 173 118 c 0
 182 49 178 82 187 20 c 1
 18 18 l 1xd0
 9 80 13 47 4 116 c 0
 -11.2914139224 244.627775935 -19.3010075759 373.255551871 -19.3010075759 501.883327806 c 0
 -19.3010075759 516.255551871 -19.2010101268 530.627775935 -19 545 c 0
 -19 622 -19 698 -19 775 c 1
 150 775 l 1xe0
EndSplineSet
Validated: 1
EndChar

StartChar: J
Encoding: 74 74 39
Width: 718
VWidth: 1024
Flags: W
HStem: -81 21G<299 357.5> 966 20G<429 592.5>
VStem: 4 147<118.68 196> 514.601 147.422<134.003 647.714>
LayerCount: 2
Fore
SplineSet
576 986 m 1
 609 901 620 809 632 719 c 0
 648 596 656 471 660 346 c 0
 660.836412379 320.48942243 662.022617593 294.803948443 662.022617593 269.163006331 c 0
 662.022617593 233.492225315 659.726907155 197.90762862 651 163 c 0
 648 153 645 143 642 134 c 0
 619 64 558 26 498 -9 c 1
 443 -37 388 -69 327 -81 c 1
 271 -79 215 -81 159 -76 c 0
 150 -75 143 -68 136 -63 c 0
 95 -33 72 12 49 55 c 0
 27 100 14 148 4 196 c 1
 151 199 l 1
 161 152 174 106 196 62 c 0
 215 27 234 -9 265 -35 c 1
 295 -22 324 -9 352 6 c 0
 409 39 471 72 495 139 c 0
 498 147 502 156 504 165 c 0
 512.547152925 198.618801504 514.600632683 233.211653983 514.600632683 267.853517144 c 0
 514.600632683 294.007096862 513.430189805 320.188611699 513 346 c 0
 509 470 501 594 485 717 c 0
 473 806 462 896 429 980 c 1
 576 986 l 1
EndSplineSet
Validated: 1
EndChar

StartChar: K
Encoding: 75 75 40
Width: 725
VWidth: 1024
Flags: W
HStem: -268.456 32.7304<1169.04 1317> 1 21G<49.5 198> 252 11<15.47 39.9531> 934 20G<-17 130 489.5 648>
VStem: -17 147<667.069 954> 50 148<1 242.249>
LayerCount: 2
Fore
SplineSet
188 246 m 1xf8
 192 166 196 84 198 1 c 1
 50 1 l 1xf4
 49 84 46 166 41 246 c 1
 0 252 l 1
 26 259 14 255 37 263 c 0
 38 263 39 264 40 264 c 0
 32 394 22 524 6 653 c 0
 -6 753 -17 854 -17 954 c 1
 130 954 l 1
 130 854 141 754 153 655 c 0
 164 565 173 475 179 385 c 1
 198 410 214 436 231 462 c 1
 212 504 195 546 187 591 c 1
 310 591 l 1
 354 671 396 753 436 835 c 0
 458 880 478 925 501 969 c 1
 648 962 l 1
 625 918 605 873 583 828 c 0
 521 702 456 576 382 460 c 1
 425 369 473 284 528 201 c 0
 585 122 641 43 710 -26 c 0
 724 -40 740 -54 754 -67 c 0
 808 -111 862 -155 925 -184 c 0
 992 -216 1081 -234 1170 -241 c 1
 1169.33965317 -240.192909427 1169.02922937 -239.48810405 1169.02922937 -238.873734095 c 0
 1169.02922937 -235.739000582 1177.11081019 -234.958665122 1188.02709653 -234.958665122 c 0
 1198.85051022 -234.958665122 1212.46060089 -235.725779323 1223.74327385 -235.725779323 c 0
 1229.24729073 -235.725779323 1234.19743505 -235.543223564 1238 -235 c 0
 1299 -226 1358 -210 1416 -192 c 1
 1562 -210 l 1
 1504 -229 1445 -246 1384 -256 c 0
 1307.00059808 -266.147208005 1297.69499462 -268.456186714 1258.04532346 -268.456186714 c 0
 1231.2684062 -268.456186714 1190.65213641 -267.403105411 1106 -267 c 0
 991 -266 863 -243 779 -200 c 0
 716 -169 661 -124 607 -79 c 0
 593 -65 577 -52 563 -37 c 0
 495 33 438 113 382 192 c 0
 351 239 321 287 294 336 c 1
 265 301 232 263 188 246 c 1xf8
EndSplineSet
Validated: 1
EndChar

StartChar: L
Encoding: 76 76 41
Width: 973
VWidth: 1024
Flags: W
HStem: -122 94<179.23 225.756> -71 46<236.185 677.787>
VStem: -89.0586 147<632.69 852>
LayerCount: 2
Fore
SplineSet
-89 852 m 1xa0
 58 852 l 1
 57.9605823048 849.240761336 57.9413634206 846.481522672 57.9413634206 843.722345254 c 0
 57.9413634206 776.483076427 69.3547592568 709.280179031 78 643 c 0
 94 533 111 424 127 314 c 0
 144 195 169 98 179 -28 c 1xa0
 207 -25 236 -26 264 -25 c 0
 363 -23 462 -23 561 -23 c 0
 575 -22 622 -18 647 -13 c 0
 664 -9 670 -6 686 0 c 0
 724 17 742 21 761 57 c 0
 771 77 775 99 779 121 c 1
 926 118 l 1
 922 95 918 72 908 50 c 0
 888 11 872 -19 832 -41 c 0
 824 -44 800 -56 792 -58 c 0
 785 -60 778 -60 771 -61 c 0
 717.862945194 -69.7440723098 666.987985079 -73.9639552375 613.810522836 -73.9639552375 c 0
 587.927910475 -73.9639552375 561.499840459 -72.9642743185 534 -71 c 1
 533 -71 l 2
 491 -71 450 -71 409 -71 c 0x60
 355 -72 298 -71 246 -88 c 0
 235 -93 232 -94 223 -103 c 0
 223 -103 208 -122 206 -122 c 0
 117.588704916 -129.713737155 93.6082890271 -141.300368688 78.4880240601 -141.300368688 c 0
 68.126030477 -141.300368688 61.9251445696 -135.858788535 42 -120 c 1
 34 -103 34 -88 33 -70 c 0
 31 -39 28 -9 24 22 c 0
 -5 228 -40 434 -69 641 c 0
 -77.6452407432 708.240761336 -89.0586365794 775.481522672 -89.0586365794 843.608630942 c 0
 -89.0586365794 846.404241037 -89.0394176952 849.201343641 -89 852 c 1xa0
EndSplineSet
Validated: 1
EndChar

StartChar: M
Encoding: 77 77 42
Width: 991
VWidth: 1024
Flags: W
HStem: 768 20G<129 222> 1126 14.2332<726.094 739.089>
VStem: 38.6188 146.396<339.69 618> 796 147<-327 17.2427>
LayerCount: 2
Fore
SplineSet
726 1120 m 1
 730 1121 735 1121 739 1122 c 0
 741 1122 736 1126 733 1126 c 0
 730 1126 728 1123 726 1120 c 1
593 1142 m 0
 622.997835607 1139.43920916 646.638765845 1138.68511773 665.434384755 1138.68511773 c 0
 692.364856625 1138.68511773 709.348231531 1140.2332165 720.830793154 1140.2332165 c 0
 745.147433454 1140.2332165 744.794793695 1133.29051909 762 1090 c 0
 798 990 837 890 863 786 c 0
 908 601 927 390 936 190 c 0
 942 32 943 -126 943 -284 c 0
 943 -298 943 -313 943 -327 c 1
 796 -327 l 1
 796 -313 796 -298 796 -284 c 0
 796 101 795 461 716 782 c 0
 701 842 681 901 660 959 c 1
 647 914 636 869 625 824 c 0
 591 665 555 507 518 349 c 1
 536 317 554 283 570 249 c 1
 423 242 l 1
 415 258 407 274 399 290 c 1
 356 291 l 1
 360 309 365 327 369 345 c 1
 354 371 338 396 322 420 c 0
 276 486 232 553 184 618 c 1
 184 592 l 1
 184.681166276 577.184633499 185.01434193 562.398266217 185.01434193 547.635959831 c 0
 185.01434193 475.709850136 177.105043327 404.354925068 163 333 c 1
 145 269 128 204 106 140 c 0
 101 122 91 107 78 92 c 1
 -68 103 l 1
 -54 115 -46 128 -41 145 c 0
 -19 208 -2 272 16 336 c 1
 30.6523450055 408.39982238 38.6188044489 482.285397107 38.6188044489 556.3761503 c 0
 38.6188044489 568.24725535 38.4142920579 580.123627675 38 592 c 1
 38 783 l 1
 129 783 l 1
 202 788 l 1
 242 738 283 689 322 639 c 0
 352 599 381 558 409 516 c 1
 434 619 455 723 478 827 c 0
 498 911 519 996 553 1076 c 0
 557 1083 584 1142 593 1142 c 0
EndSplineSet
Validated: 1
EndChar

StartChar: N
Encoding: 78 78 43
Width: 853
VWidth: 1024
Flags: W
HStem: 793 20G<157 208.5> 1030 20G<616 763.207>
VStem: 5.81739 146.557<179.431 674> 616.25 147.407<241 1050>
LayerCount: 2
Fore
SplineSet
616 1050 m 1
 763 1050 l 1
 763.414213562 1023.49033201 763.656854249 996.980664016 763.656854249 970.399928213 c 0
 763.656854249 932.809091141 763.171572875 895.076118446 762 857 c 0
 758.196152423 795.504464167 756.803847577 734.008928334 756.803847577 672.513392501 c 0
 756.803847577 637.008928334 757.267949192 601.504464167 758 566 c 0
 762 417 763 268 763 116 c 0
 762.656854249 110.509667992 762.490332008 105.048773235 762.490332008 99.6122650963 c 0
 762.490332008 73.3624817343 766.372583002 47.6812408671 773 22 c 0
 782 -4 778 9 787 -17 c 1
 786 -17 l 1
 811 -46 839 -72 872 -93 c 1
 888 -101 l 1
 742 -117 l 1
 725 -108 l 1
 642 -48 585 40 531 129 c 0
 484 204 443 283 393 356 c 0
 320 467 241 574 154 674 c 1
 153 590 153 507 152 423 c 0
 151.844948974 411.061071019 151.786061231 399.146182859 151.786061231 387.247880412 c 0
 151.786061231 349.654101635 152.373938769 312.225898365 152.373938769 274.728119588 c 0
 152.373938769 247.55179673 152.065153077 220.338928981 151 193 c 1
 148 168 l 1
 1 170 l 1
 4 194 l 1
 5.3956610415 220.517559788 5.81738721162 247.156861436 5.81738721162 273.832949757 c 0
 5.81738721162 314.578430718 4.83350036235 355.409734963 4.83350036235 396.024128076 c 0
 4.83350036235 405.027845016 4.8818539704 414.02090175 5 423 c 0
 5 517 5 611 7 704 c 0
 8 763 8 822 16 880 c 1
 162 877 l 1
 160 855 158 833 157 811 c 1
 190 813 l 1
 227 762 272 719 312 671 c 0
 396 575 470 471 540 364 c 0
 567 324 592 283 616 241 c 1
 615 350 614 458 612 566 c 0
 610.757359313 606.17871555 610.029437252 646.529003976 610.029437252 686.908729653 c 0
 610.029437252 744.01428535 611.485281374 801.17871555 615 858 c 0
 616 890 616.25 922 616.25 954 c 0
 616.25 986 616 1018 616 1050 c 1
EndSplineSet
Validated: 1
EndChar

StartChar: O
Encoding: 79 79 44
Width: 976
VWidth: 1024
Flags: W
HStem: 686 21G<-179 -28> 754 31.4444<210.88 560.796>
VStem: -60.6391 147<262.661 583.71> 789.112 147<230.549 547.513>
LayerCount: 2
Fore
SplineSet
286 865 m 1
 259 834 226 810 201 777 c 1
 253.666666667 782.333333333 306.777777778 785.444444444 360.333333333 785.444444444 c 0
 387.111111111 785.444444444 414 784.666666667 441 783 c 0
 527 781 614 780 698 760 c 0
 742 747 786 731 820 698 c 0
 845 673 865 644 884 615 c 0
 907 574 928 531 933 483 c 0
 935.274026239 462.533763847 936.111609329 441.780239065 936.111609329 420.902751123 c 0
 936.111609329 386.695154517 933.86298688 352.154759474 932 318 c 0
 925 253 909 186 866 140 c 0
 828 99 775 78 722 64 c 0
 702 61 666 53 646 52 c 0
 606.975886492 50.9452942295 567.862780643 50.2020616525 529.111213984 50.2020616525 c 0
 384.15483221 50.2020616525 244.257297272 60.6017634754 133 104 c 1
 84 127 41 157 4 196 c 0
 -22 226 -47 258 -56 298 c 0
 -59.7692307692 319.538461538 -60.6390532544 340.786982249 -60.6390532544 362.057806099 c 0
 -60.6390532544 380.289940828 -60 398.538461538 -60 417 c 0
 -59 463 -58 509 -48 554 c 0
 -36 603 -20 651 1 695 c 1
 -10 692 -22 689 -34 686 c 1
 -179 705 l 1
 -112 723 -40 740 32 753 c 1
 50 782 70 810 94 833 c 0
 109 847 128 858 140 876 c 1
 286 865 l 1
297 761 m 1
 296 761 296 761 295 761 c 1
 296 761 296 761 297 761 c 1
388 758 m 1
 389.575445947 757.66240444 390.289779469 757.375462552 390.289779469 757.129199071 c 0
 390.289779469 755.187073453 345.861894786 755.774936293 329 754 c 0
 276 749 223 741 171 732 c 1
 141 678 115 615 99 551 c 0
 89 507 88 462 87 417 c 0
 87 399 86.3609467456 381 86.3609467456 363.098315885 c 0
 86.3609467456 342.213017751 87.2307692308 321.461538462 91 301 c 0
 101 264 126 235 151 207 c 0
 189 169 230 142 279 120 c 1
 357 94 437 83 525 77 c 1
 615 86 683 110 735 170 c 0
 770 213 779 267 785 320 c 0
 786.86298688 353.533763847 789.111609329 387.067527695 789.111609329 420.601291542 c 0
 789.111609329 441.067527695 788.274026239 461.533763847 786 482 c 0
 781 527 760 568 737 607 c 0
 718 635 698 663 674 686 c 0
 606 743 499 754 388 758 c 1
EndSplineSet
Validated: 1
EndChar

StartChar: P
Encoding: 80 80 45
Width: 739
VWidth: 1024
Flags: W
HStem: 978 31.8944<164.957 398.692> 1086 20G<-42 100.5>
VStem: 180 140<-129 19.375> 500.729 198.421<682.725 872.352>
LayerCount: 2
Fore
SplineSet
335 978 m 0
 282 977 229 975 178 966 c 0
 159 961 142 954 126 947 c 1
 129 930 133 913 136 896 c 0
 168 724 194 566 226 397 c 1
 245 412 264 428 282 444 c 0
 358 513 435 586 478 680 c 0
 493.465904446 716.659921649 500.72898995 744.788911599 500.72898995 774.724037652 c 0
 500.72898995 797.04892693 496.689397036 820.378355476 489 849 c 1
 466 912 422 975 335 978 c 0
98 1106 m 1
 103 1082 104 1058 108 1035 c 0
 110 1025 112 1016 114 1007 c 1
 185.862232585 1009.21114562 258.946756406 1009.89442719 332.240072497 1009.89442719 c 0
 391.535610788 1009.89442719 450.967805394 1009.4472136 510 1009 c 0
 610 1008 663 928 687 855 c 1
 695.049533517 824.920164225 699.150341891 799.865978633 699.150341891 775.807237587 c 0
 699.150341891 743.078081681 691.561189213 712.191143202 676 673 c 0
 634 576 556 500 479 429 c 0
 418 373 352 324 281 281 c 1
 248 285 l 1
 256 240 265 196 273 152 c 0
 292 59 312 -32 320 -129 c 1
 180 -130 l 1
 179 -111 l 1
 168 -24 151 63 133 149 c 0
 124 199 114 249 105 299 c 1
 84 301 l 1
 90 305 96 308 102 312 c 1
 77 446 51 579 28 713 c 0
 19 762 -0 875 -10 922 c 1
 -129 933 l 1
 -96 955 -61 975 -23 988 c 1
 -26 1003 -29 1018 -32 1033 c 0
 -36 1056 -37 1080 -42 1103 c 1
 98 1106 l 1
EndSplineSet
Validated: 1
EndChar

StartChar: Q
Encoding: 81 81 46
Width: 979
VWidth: 1024
Flags: W
HStem: -141.575 41.5755<1001 1046.8> -106 20G<923.5 1074> 686 21G<-179 -27.5> 754 31.7916<209.713 561.203>
VStem: -60.6391 147<262.661 583.71> 789.112 147<230.212 547.56>
LayerCount: 2
Fore
SplineSet
570 84 m 1x3c
 559 96 547 107 534 118 c 0
 504 145 474 173 442 197 c 1
 589 209 l 1
 623 186 654 154 685 127 c 1
 703 139 720 153 735 170 c 0
 770 213 779 266 785 320 c 0
 786.86298688 353.533763847 789.111609329 387.067527695 789.111609329 420.601291542 c 0
 789.111609329 441.067527695 788.274026239 461.533763847 786 482 c 0
 781 527 760 568 737 607 c 0
 718 635 699 663 674 686 c 0
 607 743 499 754 388 758 c 1
 389.39345702 757.678432995 390.028608225 757.402823919 390.028608225 757.164551948 c 0
 390.028608225 755.179909557 345.96340897 755.785621997 329 754 c 0
 276 749 223 741 171 732 c 1
 141 679 115 615 99 551 c 0
 89 507 88 462 87 417 c 0
 87 399 86.3609467456 381 86.3609467456 363.098315885 c 0
 86.3609467456 342.213017751 87.2307692308 321.461538462 91 301 c 0
 101 264 126 235 151 206 c 0
 189 169 230 142 279 120 c 1
 357 94 437 83 525 77 c 0
 541 79 555 81 570 84 c 1x3c
140 876 m 1
 286 865 l 1
 259 834 226 810 202 778 c 1
 256.846079965 782.859779237 311.692159929 785.791603027 367.207485455 785.791603027 c 0
 391.656137653 785.791603027 416.234588318 785.222983293 441 784 c 0
 527 782 614 780 698 760 c 0
 742 747 786 731 820 698 c 0
 845 673 865 644 884 614 c 0
 907 574 928 531 933 484 c 0
 935.274026239 463.154759474 936.111609329 442.165874634 936.111609329 421.142229125 c 0
 936.111609329 386.695154517 933.86298688 352.154759474 932 318 c 0
 925 253 909 185 866 140 c 0
 832 104 786 83 739 69 c 1
 752 52 764 35 776 17 c 0
 797 -20 828 -47 863 -70 c 0
 880 -81 897 -89 915 -96 c 0
 918 -94 919 -93 928 -86 c 1x7c
 1074 -100 l 1
 1059 -112 1067 -106 1051 -119 c 0
 1021.30568758 -136.147419846 988.113052652 -141.575459267 953.7630593 -141.575459267 c 0xbc
 905.981178582 -141.575459267 855.959849565 -131.072391734 810 -127 c 1
 776 -119 746 -103 717 -84 c 0
 682 -59 651 -29 630 8 c 0
 619 23 609 37 598 51 c 1
 571.167982606 50.3723504703 544.508315681 49.9909158982 518.125311502 49.9909158982 c 0
 376.369869421 49.9909158982 242.601390285 61.0025315036 133 104 c 1
 84 127 41 157 4 196 c 0
 -22 226 -47 258 -56 298 c 0
 -59.7692307692 319.538461538 -60.6390532544 341.076923077 -60.6390532544 362.459262631 c 0
 -60.6390532544 380.786982249 -60 399 -60 417 c 0
 -59 463 -58 509 -48 554 c 0
 -36 603 -20 651 2 695 c 1
 -10 692 -22 689 -33 686 c 1
 -179 706 l 1
 -112 723 -39 740 33 753 c 1
 50 782 70 810 94 833 c 0
 109 847 128 858 140 876 c 1
EndSplineSet
Validated: 1
EndChar

StartChar: R
Encoding: 82 82 47
Width: 928
VWidth: 1024
Flags: W
HStem: -159.264 25.264<1142.56 1288> -96 21G<177 319> 1012 32.25<160.021 397.127> 1120 20G<-44 99>
VStem: 498.729 198<717.698 907.322>
LayerCount: 2
Fore
SplineSet
333 1012 m 0
 281 1012 228 1010 176 1001 c 0
 158 996 140 989 124 981 c 1
 163 795 190 616 225 432 c 1
 243 447 262 463 280 479 c 0
 356 548 433 621 476 715 c 0
 491.465904446 751.659921649 498.72898995 779.788911599 498.72898995 809.724037652 c 0
 498.72898995 832.04892693 494.689397036 855.378355476 487 884 c 1
 464 947 421 1009 333 1012 c 0
96 1140 m 1
 102 1117 102 1093 106 1069 c 0
 108 1060 110 1051 112 1041 c 1
 177 1043.5 243 1044.25 309.25 1044.25 c 0
 375.5 1044.25 442 1043.5 508 1043 c 0
 608 1042 660 963 685 890 c 1
 692.689397036 859.669600579 696.72898995 834.44892693 696.72898995 810.20621786 c 0
 696.72898995 777.699514563 689.465904446 746.951166752 674 708 c 0
 630 607 547 526 466 453 c 1
 507 458 l 1
 545 446 579 428 613 408 c 0
 663 382 691 345 723 300 c 0
 761 247 793 189 828 134 c 0
 864 77 908 27 954 -21 c 0
 985 -51 1019 -78 1059 -95 c 0
 1077 -104 1094 -109 1113 -115 c 0
 1170 -130 1229 -133 1288 -134 c 0
 1288 -133 1312 -132 1321 -131 c 0
 1331 -129 1340 -127 1349 -125 c 1
 1487 -143 l 1
 1438.36544785 -156.001315922 1388.57153894 -159.264035054 1338.51149777 -159.264035054 c 0
 1288.06834156 -159.264035054 1237.35496403 -155.951184922 1187.28525487 -155.951184922 c 0
 1183.85371515 -155.951184922 1180.4251988 -155.966745643 1177 -156 c 0
 1109 -154 1039 -152 974 -132 c 0
 910 -109 862 -80 815 -32 c 0
 768 18 724 69 688 126 c 0
 653 182 621 239 583 292 c 0
 552 336 524 368 474 394 c 0
 458 403 442 411 426 419 c 1
 380 381 331 347 279 316 c 1
 246 320 l 1
 254 275 263 231 271 187 c 0
 289 100 307 13 317 -75 c 1
 319 -94 l 1
 179 -96 l 1
 177 -77 l 1
 167 11 149 98 131 184 c 0
 122 234 112 284 103 334 c 1
 82 336 l 1
 88 339 94 343 100 347 c 1
 75 480 49 614 26 748 c 0
 18 797 -2 910 -12 957 c 1
 -131 968 l 1
 -98 990 -63 1009 -25 1023 c 1
 -28 1038 -31 1053 -34 1068 c 0
 -38 1091 -38 1115 -44 1138 c 1
 96 1140 l 1
EndSplineSet
Validated: 1
EndChar

StartChar: S
Encoding: 83 83 48
Width: 1131
VWidth: 1024
Flags: W
HStem: 668 21G<604 782.158>
VStem: -21.1276 178.202<397.994 647.382> 604.422 178.211<668 802.719> 918 179.062<24.9523 84.0159>
LayerCount: 2
Fore
SplineSet
396 871 m 1
 351 865 353 863 312 847 c 1
 232 803 201 721 176 639 c 1
 167.014773436 595.456209729 157.074111412 542.358064854 157.074111412 492.912956266 c 0
 157.074111412 470.819923096 159.058740386 449.456209729 164 430 c 0
 167 420 173 410 177 401 c 0
 192 378 194 370 218 353 c 0
 237 340 273 326 294 317 c 0
 367 287 339 299 432 271 c 0
 617 222 806 189 990 136 c 0
 1014 125 1086 113 1096 80 c 0
 1096.75 76.75 1097.0625 73.625 1097.0625 70.578125 c 0
 1097.0625 61.4375 1094.25 53 1092 44 c 0
 1072 8 1043 -37 1010 -61 c 0
 909 -133 778 -173 663 -216 c 0
 552 -255 438 -289 324 -321 c 1
 148 -298 l 1
 262 -266 375 -233 487 -195 c 0
 562 -167 666 -129 740 -95 c 0
 771 -81 803 -66 832 -47 c 0
 867 -24 890 16 914 49 c 0
 915 51 921 64 918 69 c 0
 906 89 831 105 813 113 c 0
 629 165 440 198 255 248 c 0
 192 268 94 295 40 339 c 0
 17 359 14 369 -1 394 c 0
 -5 405 -11 416 -14 428 c 0
 -19.069919183 449.864026477 -21.1276414298 472.631712034 -21.1276414298 495.730371859 c 0
 -21.1276414298 545.528052953 -11.5638207149 596.864026477 -2 644 c 1
 23 731 56 817 135 868 c 0
 149 874 161 882 175 887 c 0
 202 896 248 902 275 902 c 0
 321.368407373 902.747877538 365.919022105 903.775415483 409.540739077 903.775415483 c 0
 482.57372756 903.775415483 553.00295845 900.895163386 625 889 c 1
 685 874 752 853 775 789 c 1
 781.153950106 761.649110641 782.632455532 734.298221281 782.632455532 706.627637997 c 0
 782.632455532 693.830676813 782.316227766 680.965338407 782 668 c 1
 604 668 l 1
 604 683 604.421875 697.859375 604.421875 712.578125 c 0
 604.421875 737.109375 603.25 761.25 597 785 c 0
 594 791 593 797 589 803 c 0
 585 808 579 812 573 816 c 0
 536 846 494 856 448 865 c 1
 450.313234808 865.330462115 451.370609704 865.660924231 451.370609704 865.991386346 c 0
 451.370609704 867.660924231 424.382144039 869.330462115 396 871 c 1
EndSplineSet
Validated: 1
EndChar

StartChar: T
Encoding: 84 84 49
Width: 961
VWidth: 1024
Flags: W
HStem: -72.9156 21G<454.414 643.586> 711.682 21G<-140.829 10.8909> 1000.56 13.155G<386.474 564.55 901.97 1033.58>
VStem: 396.314 170.909<580.916 871.468>
LayerCount: 2
Fore
SplineSet
969.35917 1020.5583 m 1
 1145.1896 965.79909 l 1
 952.36797 954.04765 759.51597 938.79781 567.22237 907.18949 c 1
 574.855011581 635.579152827 573.605014756 375.189294257 602.08797 114.03589 c 0
 606.99677 51.5993 619.85917 -6.9603 643.58637 -60.9371 c 1
 465.83201 -72.9156 l 1
 442.99521 -15.4311 429.14561 45.5783 424.12161 110.61333 c 0
 405.30321 285.17285 397.15841 461.12029 396.31361 637.45741 c 0
 394.75681 715.47125 392.57281 793.49429 390.32401 871.46765 c 1
 237.63841 836.21541 85.14641 792.16813 -63.36471 711.68181 c 1
 -239.83495 757.24325 l 1
 -58.66055 859.75653 129.07681 904.49933 315.67201 945.90605 c 0
 339.70401 950.58677 363.70481 954.83349 387.75761 958.95413 c 1
 387.28802 977.19173 386.87361 995.47477 386.47362 1013.7133 c 1
 564.44157 1013.7133 l 1
 564.65757 1004.1614 564.84157 994.60205 565.08157 985.05029 c 1
 699.68637 1001.6397 834.58077 1011.9545 969.35917 1020.5583 c 1
EndSplineSet
Validated: 1
EndChar

StartChar: U
Encoding: 85 85 50
Width: 862
VWidth: 1024
Flags: W
HStem: -123.127 45.4698<425.154 577.44> 763 20G<-1 181>
VStem: -8.02428 177.997<357.225 777.203> 633.074 177.911<-8.25484 394.805>
LayerCount: 2
Fore
SplineSet
527 -76 m 0
 586 -69 612 -28 625 41 c 1
 629.941342951 90.4134295109 633.074028853 140.128301863 633.074028853 189.813609844 c 0
 633.074028853 230.623492392 630.960580838 271.413429511 626 312 c 0
 617 382 609 403 592 471 c 0
 552 616 493 756 439 894 c 1
 616 900 l 1
 671 762 730 621 770 476 c 0
 787 406 795 385 804 313 c 0
 808.857738106 272.81325749 810.985173128 232.236471683 810.985173128 191.614138613 c 0
 810.985173128 140.250108058 807.583874449 88.8132574903 802 38 c 1
 790 -35 781 -78 706 -105 c 1
 644.719087649 -117.849223557 581.972768085 -123.127176513 518.968050596 -123.127176513 c 0
 454.484702568 -123.127176513 389.730685837 -117.598584597 326 -109 c 1
 277 -95 233 -68 198 -30 c 0
 139 38 94 116 61 199 c 0
 21.6487248885 307.216006556 -8.0242823923 415.432013113 -8.0242823923 532.21719372 c 0
 -8.0242823923 534.142454161 -8.01621812221 536.070043457 -8 538 c 0
 -6 620 -5 702 3 783 c 1
 181 781 l 1
 173 700 172 619 170 537 c 0
 169.982073998 534.920583796 169.97314556 532.843416983 169.97314556 530.768476519 c 0
 169.97314556 417.093095641 196.770818076 310.099843814 239 206 c 0
 272 124 308 48 372 -12 c 0
 407.490484191 -44.8286978763 439.832032211 -77.6573957527 501.853341938 -77.6573957527 c 0
 509.733935373 -77.6573957527 518.093706276 -77.1273789523 527 -76 c 0
EndSplineSet
Validated: 1
EndChar

StartChar: V
Encoding: 86 86 51
Width: 1024
VWidth: 1024
Flags: W
HStem: 770 20G<-92 106>
LayerCount: 2
Fore
SplineSet
83 790 m 1
 129 725 167 657 206 590 c 0
 270 473 326 354 371 231 c 0
 395 168 413 104 432 41 c 1
 452 89 475 154 490 196 c 0
 525 292 562 389 599 485 c 0
 654 627 720 765 794 900 c 0
 802 913 810 926 818 939 c 1
 993 931 l 1
 985 918 977 906 970 893 c 0
 895 759 829 621 774 480 c 0
 737 384 701 288 665 191 c 0
 649 146 618 59 599 13 c 0
 589 -10 578 -33 568 -56 c 0
 559 -73 552 -91 543 -108 c 0
 536 -119 534 -138 520 -140 c 0
 498.012632761 -142.893074637 444.219718278 -156.834392 395.815020407 -156.834392 c 0
 360.563567039 -156.834392 328.169862616 -149.440334214 313 -125 c 0
 308 -117 293 -76 290 -70 c 0
 258 29 233 129 196 226 c 0
 151 348 95 467 31 582 c 0
 -8 649 -45 717 -92 780 c 1
 83 790 l 1
EndSplineSet
Validated: 1
EndChar

StartChar: W
Encoding: 87 87 52
Width: 1264
VWidth: 1024
Flags: W
HStem: -101.529 21G<337.623 369.824> 599 20G<-210 0.5> 1170 20G<1113.5 1307>
LayerCount: 2
Fore
SplineSet
983 -112 m 1
 968 -176 l 1
 958 -179 950 -180 935 -183 c 0
 889.613483845 -189.778505659 856.474014185 -194.038115231 831.153011125 -194.038115231 c 0
 770.557869884 -194.038115231 754.737706318 -169.644083351 723 -97 c 1
 687 -4 656 89 621 182 c 1
 597 121 577 59 549 -2 c 0
 540 -20 521 -59 507 -77 c 0
 501 -85 493 -91 486 -98 c 1
 439.796111719 -98.7219357544 393.071032204 -101.528636443 346.577294628 -101.528636443 c 0
 328.669543162 -101.528636443 310.796111719 -101.112256982 293 -100 c 0
 280 -99 257 -68 253 -63 c 0
 226 -28 207 12 183 49 c 0
 123 161 65 276 -13 380 c 0
 -75 457 -137 537 -210 606 c 1
 -36 619 l 1
 37 547 99 468 162 389 c 0
 240 284 297 169 358 56 c 0
 366 46 373 34 381 20 c 1
 405 73 424 128 444 182 c 0
 476 262 496 345 516 428 c 1
 520.837911006 446.472023842 538.829260339 452.177475191 560.44578814 452.177475191 c 0
 587.978946124 452.177475191 621.393353202 442.92132936 641 439 c 0
 663 435 684 433 701 431 c 1
 714 402 l 1
 734 358 749 312 766 267 c 0
 791 203 814 139 838 74 c 1
 876 329 904 568 973 799 c 0
 995 871 1009 905 1035 974 c 0
 1062 1048 1095 1120 1132 1190 c 1
 1307 1183 l 1
 1270 1114 1237 1042 1210 969 c 0
 1184 901 1170 866 1149 796 c 0
 1063 511 1037 200 983 -112 c 1
EndSplineSet
Validated: 1
EndChar

StartChar: X
Encoding: 88 88 53
Width: 1040
VWidth: 1024
Flags: W
HStem: -968.506 21G<-183.112 19.3765> 754.807 20G<-128.297 89.8237 688.854 883.5>
LayerCount: 2
Fore
SplineSet
611.083984375 0.26171875 m 1
 474.833007812 -247.1484375 319.696289062 -483.161132812 163.842773438 -717.811523438 c 0
 108.203125 -803.231445312 49.322265625 -886.234375 -10.5693359375 -968.505859375 c 1
 -183.112304688 -957.168945312 l 1
 -123.1640625 -875.219726562 -63.97265625 -792.59765625 -8.4931640625 -707.330078125 c 0
 167.678710938 -442.487304688 342.842773438 -175.65234375 491.280273438 107 c 1
 374.915039062 213.953125 263.418945312 326.407226562 156.991210938 444.325195312 c 0
 60.9169921875 548.927734375 -35.5087890625 653.1796875 -128.296875 760.90234375 c 1
 43.8310546875 774.806640625 l 1
 135.81640625 666.161132812 233.192382812 562.5078125 329.326171875 457.801757812 c 0
 401.02734375 378.416992188 474.954101562 301.697265625 551.286132812 227.427734375 c 1
 610.250976562 348.592773438 666.958984375 471.0625 710.749023438 598.977539062 c 1
 883.5 595.127929688 l 1
 830.625976562 434.887695312 755.682617188 283.563476562 681.6796875 132.881835938 c 0
 678.458007812 126.595703125 675.170898438 120.329101562 671.921875 114.05859375 c 1
 728.80859375 62.3173828125 786.842773438 11.8623046875 846.125976562 -37.1708984375 c 0
 951.169921875 -119.62890625 1061.21582031 -194.8671875 1176.88476562 -260.486328125 c 1
 1005.17382812 -279.5234375 l 1
 866.005090155 -198.734676146 731.901955292 -103.850879125 611.083984375 0.26171875 c 1
EndSplineSet
Validated: 1
EndChar

StartChar: Y
Encoding: 89 89 54
Width: 754
VWidth: 1024
Flags: W
HStem: 1078 20G<-138 48.5>
VStem: 298.92 178<-285 278.186> 531 178<729.92 830>
LayerCount: 2
Fore
SplineSet
-138 1098 m 1
 40 1098 l 1
 57 1011 88 929 126 849 c 0
 191 714 276 591 367 473 c 0
 379 459 391 445 403 431 c 1
 412 446 420 462 427 479 c 0
 454 549 478 620 500 692 c 0
 511 740 527 786 531 835 c 1
 709 830 l 1
 704 782 689 735 678 688 c 0
 656 615 632 543 605 472 c 0
 580 412 542 359 510 303 c 0
 484 256 481 202 479 149 c 0
 477.4 91.4 476.92 33.8 476.92 -23.928 c 0
 476.92 -110.52 478 -197.4 478 -285 c 1
 300 -285 l 1
 300 -278 300 -271 300 -264 c 0
 300 -180.6 298.92 -97.56 298.92 -14.88 c 0
 298.92 40.24 299.4 95.2 301 150 c 0
 303 205 306 262 332 312 c 0
 339 325 347 338 355 350 c 1
 289 345 l 1
 158 490 35 660 -52 841 c 0
 -90 924 -122 1008 -138 1098 c 1
EndSplineSet
Validated: 1
EndChar

StartChar: Z
Encoding: 90 90 55
Width: 931
VWidth: 1024
Flags: W
HStem: -405.067 56.2664<1046.57 1272.39> 588 87<243.419 360.67> 639 68<445.167 649>
LayerCount: 2
Fore
SplineSet
524 696 m 0xc0
 575 700 674 707 678 707 c 0
 738 696 798 681 858 668 c 1
 857 658 858 646 842 625 c 0
 792 555 770 538 682 433 c 0
 618 356 488 217 402 138 c 0
 315 58 215 -58 137 -141 c 1
 302 -184 459 -192 641 -238 c 0
 770 -272 922 -327 1067 -347 c 1
 1080.21101837 -348.20100167 1094.25342297 -348.801001252 1108.94876767 -348.801001252 c 0
 1241.08430654 -348.801001252 1426.0100167 -300.291068441 1534 -204 c 1
 1716 -212 l 1
 1588.90511711 -361.580900632 1426.44543881 -405.067415021 1247.30988206 -405.067415021 c 0
 1243.21522648 -405.067415021 1239.11185806 -405.044694109 1235 -405 c 1
 1034 -395 739 -323 463 -246 c 1
 315 -214 166 -194 18 -163 c 0
 -2.90171328895 -155.399376986 -46.3696258761 -147.798753972 -46.3696258761 -111.040211424 c 0
 -46.3696258761 -109.108722926 -46.2496106161 -107.096729176 -46 -105 c 1
 -32 -50 139 89 227 180 c 0
 316 271 442 395 507 473 c 0
 572 551 603 581 649 639 c 1xa0
 575 634 484 633 434 629 c 0
 384 626 369 621 350 592 c 1
 172 588 l 1
 177 624 213 663 264 675 c 0
 315 686 459 691 524 696 c 0xc0
EndSplineSet
Validated: 1
EndChar

StartChar: one
Encoding: 49 49 56
Width: 334
VWidth: 1024
Flags: W
HStem: 1 21G<113.5 262> 725 21G<-72 80> 999 20G<91 119>
VStem: 107.75 147<4.5774 798>
LayerCount: 2
Fore
SplineSet
94 1019 m 0
 144 1015 195 1007 246 1002 c 1
 254 949.333333333 255.333333333 896.222222222 255.333333333 842.962962963 c 0
 255.333333333 816.333333333 255 789.666666667 255 763 c 0
 254.75 733.5 254.6875 703.9375 254.6875 674.328125 c 0
 254.6875 644.71875 254.75 615.0625 254.75 585.375 c 0
 254.75 526 254.5 466.5 253 407 c 0
 252.154700538 373.188021535 251.845299462 339.197410275 251.845299462 305.179164426 c 0
 251.845299462 258.709376404 252.422649731 212.188021535 253 166 c 0
 253 111 259 57 262 2 c 1
 115 1 l 1
 112 56 106 110 106 165 c 0
 105.422649731 211.765371804 104.845299462 258.530743609 104.845299462 305.103665323 c 0
 104.845299462 339.197410275 105.154700538 373.188021535 106 407 c 0
 107.5 466.5 107.75 526 107.75 585.375 c 0
 107.75 615.0625 107.6875 644.71875 107.6875 674.328125 c 0
 107.6875 703.9375 107.75 733.5 108 763 c 0
 108 775 108 787 108 798 c 1
 96 774 84 750 76 725 c 1
 -72 730 l 1
 -51 792 -18 847 14 903 c 0
 35 934 50 969 72 998 c 0
 73 999 88 1019 94 1019 c 0
231 999 m 0
 228 998 226 996 224 994 c 1
 229 994 234 994 239 994 c 0
 242 994 234 1000 231 999 c 0
EndSplineSet
Validated: 1
EndChar

StartChar: two
Encoding: 50 50 57
Width: 660
VWidth: 1024
Flags: W
HStem: -39 27<472.161 567.372>
VStem: -17 147<550.955 777.611> 253 147<429.389 711.477>
LayerCount: 2
Fore
SplineSet
532 -12 m 0
 561 -18 627 -28 643 -39 c 1
 589 -39 535 -39 481 -39 c 0
 447 -39 412 -39 377 -33 c 0
 324 -24 271 -11 217 0 c 0
 189 5 159 11 131 16 c 0
 100 21 62 22 33 39 c 0
 25 43 15 53 18 66 c 0
 19 72 33 78 35 79 c 0
 49 89 60 104 70 119 c 0
 105 169 136 222 165 277 c 0
 205 351 240 429 252 516 c 0
 252 525 253 534 253 543 c 0
 253 599 245 654 232 708 c 0
 224 745 218 785 184 799 c 1
 177 797 170 794 163 790 c 0
 131 762 134 724 130 682 c 1
 130 637 135 589 153 547 c 1
 7 536 l 1
 -9 580 -17 627 -17 675 c 0
 -17 677 -17 680 -17 683 c 0
 -14 729 -13 768 16 804 c 1
 40 826 70 828 99 830 c 0
 124 830 134 830 143 830 c 0
 161 830 171 830 273 830 c 0
 291 830 306 829 324 822 c 0
 364 804 371 754 379 712 c 0
 393 658 400 601 400 545 c 0
 400 535 399 525 399 515 c 0
 388 425 352 345 312 268 c 0
 283 213 252 159 217 108 c 0
 205 88 190 72 173 58 c 1
 236 45 299 35 363 23 c 0
 417 14 479 -1 532 -12 c 0
EndSplineSet
Validated: 1
EndChar

StartChar: three
Encoding: 51 51 58
Width: 684
VWidth: 1024
Flags: W
HStem: 25 27<154.207 421.936> 663 157.209<67.3202 161.869>
VStem: 8 147<663 732.077> 299.486 148.145<485.373 701.217> 516.018 146.524<90.0904 262.592>
LayerCount: 2
Fore
SplineSet
361 785 m 0
 385 767 405 743 422 716 c 0
 437 689 442 659 445 628 c 0
 446.315191898 606.956929625 447.630383797 586.346291682 447.630383797 566.879000712 c 0
 447.630383797 527.138837641 442.149666838 492.163272914 420 468 c 0
 411 460 401 453 391 447 c 1
 394 447 l 0
 446 437 491 403 535 371 c 0
 571 342 610 316 639 278 c 0
 658 250 660 217 662 183 c 0
 661.721935754 179.246132684 661.617840889 175.414945644 661.617840889 171.52793873 c 0
 661.617840889 159.946678881 662.541922424 147.869889166 662.541922424 135.866235144 c 0
 662.541922424 122.921370114 661.467244305 110.061559623 657 98 c 0
 655 93 652 89 649 84 c 0
 609 43 553 39 502 32 c 0
 421 26 340 26 259 25 c 1
 247.445717864 25.9026782919 235.435131993 26.2186803527 223.103579472 26.2186803527 c 0
 194.310318492 26.2186803527 163.767186234 24.4958754129 133.196987636 24.4958754129 c 0
 104.339033664 24.4958754129 75.4569604278 26.0310955592 48 32 c 0
 10 40 -26 57 -61 75 c 0
 -86 90 -111 107 -134 126 c 1
 13 142 l 1
 56 108 107 78 165 62 c 0
 186 57 216 54 230 52 c 0
 272 53 314 54 356 57 c 0
 406 62 458 65 502 94 c 0
 505 97 508 99 510 103 c 0
 514.68783604 111.594366073 516.018257162 121.867439605 516.018257162 132.626871304 c 0
 516.018257162 146.750817038 513.725687475 161.712850782 513.725687475 174.815831728 c 0
 513.725687475 177.282431224 513.806929287 179.68315145 514 182 c 0
 513 213 511 242 492 266 c 0
 462 301 424 326 389 354 c 0
 346 384 301 418 249 421 c 0
 239.824590463 421.764617461 205.50966685 422.529234923 205.50966685 436.257601956 c 0
 205.50966685 440.483790928 208.761611148 445.938523841 217 453 c 0
 227 457 238 460 248 466 c 0
 262 475 251 472 274 482 c 1
 293 496 298 515 299 540 c 0
 299.218925479 554.230156119 299.485779323 568.124813682 299.485779323 581.600030766 c 0
 299.485779323 629.676430058 296.089012073 672.413795587 275 706 c 0
 254 736 232 758 199 773 c 0
 197 771 194 769 192 766 c 0
 173 733 165 695 155 657 c 1
 8 663 l 1
 18 701 27 740 45 775 c 0
 63 804 89 812 119 816 c 0
 165.779922111 817.209825572 199.386742993 820.208590817 228.805607493 820.208590817 c 0
 272.336592587 820.208590817 306.698042346 813.642790851 361 785 c 0
EndSplineSet
Validated: 1
EndChar

StartChar: four
Encoding: 52 52 59
Width: 584
VWidth: 1024
Flags: W
HStem: -4 21G<333 480> 316 54<263.764 333> 316 13<512 522> 329 5<516 558> 614 20G<338 490>
VStem: 333 147<-4 316 370 626.719>
LayerCount: 2
Fore
SplineSet
481 340 m 1xcc
 491 338 502 336 512 334 c 2
 558 329 l 1x9c
 480 316 l 1xac
 480 234 480 151 480 68 c 2
 480 -4 l 1
 333 -4 l 1
 333 103 333 210 333 316 c 1
 250 331 168 350 89 382 c 0
 65 392 5 408 -5 439 c 0
 -7 444 -7 449 -7 455 c 0
 -6 458 -5 463 -2 466 c 0
 12 485 28 482 51 508 c 1
 74 546 98 583 121 621 c 0
 158 674 192 728 225 784 c 0
 250 827 279 870 296 918 c 1
 443 910 l 1
 425 862 397 819 372 775 c 0
 339 718 305 663 268 610 c 0
 243 573 221 535 198 498 c 1
 170 467 165 457 147 438 c 1
 176 418 203 415 235 402 c 0
 267 390 300 379 334 370 c 1
 335 461 333 547 343 634 c 1
 490 630 l 1
 482 560 481 491 481 419 c 0
 481 393 481 367 481 340 c 1xcc
EndSplineSet
Validated: 1
EndChar

StartChar: five
Encoding: 53 53 60
Width: 559
VWidth: 1024
Flags: W
HStem: -54 58<-36.6487 89> 780 20G<1.5 133> 946 20G<304 487>
VStem: -3 147<536.019 691> 356 148<226.004 467.291>
LayerCount: 2
Fore
SplineSet
341 966 m 1
 487 954 l 1
 446 921 404 890 364 855 c 0
 309 808 252 762 194 718 c 0
 179 707 162 699 145 691 c 1
 144 691 l 1
 147 616 166 546 176 473 c 1
 191 480 206 486 221 492 c 0
 264 506 343 527 404 527 c 0
 437 527 466 521 480 504 c 0
 484 499 487 492 490 487 c 0
 501 450 504 411 504 372 c 0
 504 347 503 321 501 295 c 1
 491 229 462 167 418 114 c 0
 392 83 375 71 345 44 c 0
 308 12 264 -10 220 -32 c 1
 165 -46 120 -54 84 -54 c 2
 14 -54 l 2
 12 -54 10 -54 8 -54 c 0
 -22 -54 -38 -34 -53 -9 c 2
 -58 4 l 1
 89 10 l 1
 94 -1 l 2
 95 -3 97 -4 98 -6 c 0
 165 28 224 69 271 122 c 0
 315 172 344 232 354 296 c 0
 356 317 356 339 356 360 c 0
 356 378 356 395 355 413 c 0
 354 430 353 453 347 468 c 1
 294 447 244 423 191 402 c 1
 127 410 l 1
 36 409 l 1
 34 434 31 460 27 485 c 0
 17 549 2 613 -2 678 c 0
 -3 690 -3 703 -3 715 c 0
 -3 744 -1 772 4 800 c 1
 133 798 l 1
 202 853 267 915 341 966 c 1
EndSplineSet
Validated: 1
EndChar

StartChar: six
Encoding: 54 54 61
Width: 554
VWidth: 1024
Flags: W
HStem: 0.715041 21G<270.593 312.522> 795 21G<336 486> 807 34<400.833 440.224>
VStem: -16.0992 146.817<171.877 420.79> 378.16 147.438<103.188 430.586>
LayerCount: 2
Fore
SplineSet
296 447 m 1x98
 250 443 207 432 163 421 c 1
 149 423 l 1
 141.532141344 375.952490469 130.718147914 322.770400518 130.718147914 270.117319891 c 0
 130.718147914 252.26413754 131.961430387 234.471775275 135 217 c 0
 146 176 169 137 198 103 c 0
 225 73 263 52 303 35 c 0
 304 34 l 0
 322 45 333 63 345 83 c 0
 367 115 373 151 376 188 c 0
 377.8 218.6 378.16 249.2 378.16 279.8 c 0
 378.16 300.2 378 320.6 378 341 c 0
 377.659610603 343.723115179 377.525203324 346.742329655 377.525203324 349.983147163 c 0
 377.525203324 362.154727551 379.421069062 377.452102936 379.421069062 391.92877729 c 0
 379.421069062 407.569569824 377.20803816 422.252363748 368 431 c 0
 354 443 327 444 296 447 c 1x98
320 846 m 0
 349 846 365 845 394 844 c 2
 430 841 l 1
 448 829 467 817 486 807 c 1xb8
 340 795 l 1xd8
 332 800 323 805 315 810 c 1
 288 793 268 770 250 746 c 0
 207 682 185 608 166 523 c 0
 163 504 160 485 156 466 c 1
 163 467 170 467 177 468 c 0
 241 468 304 468 368 468 c 0
 413 468 463 468 502 448 c 0
 506 444 512 441 514 436 c 0
 523.941176471 413.823529412 525.110726644 388.138408304 525.110726644 363.416446163 c 0
 525.110726644 355.809688581 525 348.294117647 525 341 c 0
 525.366025404 322.332704407 525.598076211 303.531434218 525.598076211 284.694265644 c 0
 525.598076211 252.067332603 524.901923789 219.332704407 523 187 c 0
 520 149 514 111 492 77 c 0
 471 43 456 13 405 3 c 1
 367.909090909 3 330.818181818 0.715041322314 294.225809166 0.715041322314 c 0
 246.960661157 0.715041322314 200.527272727 4.52727272727 156 22 c 0
 116 41 78 63 51 96 c 0
 22 132 -2 172 -12 215 c 0
 -14.9090909091 232.454545455 -16.0991735537 249.909090909 -16.0991735537 267.315552216 c 0
 -16.0991735537 297.776859504 -12.4545454545 328.090909091 -8 358 c 0
 0 414 10 470 19 525 c 0
 47 652 85 773 185 833 c 0
 191 835 197 841 204 841 c 0xb8
 237 843 279 846 320 846 c 0
EndSplineSet
Validated: 1
EndChar

StartChar: seven
Encoding: 55 55 62
Width: 673
VWidth: 1024
Flags: W
HStem: 873 122<43.1031 130.667> 973 24<194.594 459>
VStem: 459 147<815.622 973>
LayerCount: 2
Fore
SplineSet
268 973 m 0x60
 232 972 201 970 173 949 c 0
 146 927 133 906 123 873 c 1
 -24 880 l 1
 -14 911 2 938 26 961 c 0
 51 983 81 991 114 995 c 0xa0
 159 996 203 997 248 997 c 0x60
 378 997 473 995 604 995 c 0xa0
 607 993 606 992 606 990 c 0
 606 929 596 870 585 810 c 0
 563 695 578 764 548 639 c 0
 503 452 448 268 402 82 c 0
 382 6 366 -71 348 -148 c 1
 201 -145 l 1
 219 -68 235 9 255 86 c 0
 301 272 356 456 401 643 c 0
 431 770 415 695 437 813 c 0
 447 866 457 919 459 973 c 1
 416.333333333 973 373.666666667 972.555555556 331.296296296 972.555555556 c 0
 310.111111111 972.555555556 289 972.666666667 268 973 c 0x60
EndSplineSet
Validated: 1
EndChar

StartChar: eight
Encoding: 56 56 63
Width: 682
VWidth: 1024
Flags: W
HStem: -2 21G<291.5 335.5>
VStem: -20 137<82.0578 293.728> 244 138<658.211 861.203> 405 138<114.547 378.312> 511 137<567.949 816.666>
LayerCount: 2
Fore
SplineSet
340 517 m 1xf0
 304 486 271 451 237 418 c 0
 221 400 201 386 186 368 c 0
 173 352 163 334 152 317 c 0
 129 285 123 248 119 210 c 0
 118 194 117 178 117 162 c 0
 117 143 119 124 124 106 c 0
 136 77 160 59 186 43 c 0
 215 28 248 25 281 23 c 1
 313 26 335 38 358 58 c 0
 376 74 391 90 398 113 c 0
 403 146 404 179 404 212 c 0
 404 221 404 231 404 240 c 0
 405 251 405 261 405 272 c 0
 405 308 401 344 395 380 c 1
 331 385 l 1
 348 400 364 414 381 430 c 1
 370 461 357 492 340 517 c 1xf0
424 882 m 1
 411 880 398 875 390 862 c 0
 383 845 382 828 382 810 c 0
 382 804 382 798 382 792 c 0
 382 788 382 784 382 780 c 0
 382 757 382 734 386 711 c 0
 390 686 400 664 412 642 c 0
 428 604 449 568 471 534 c 1
 490 565 505 597 510 633 c 1
 510 656 511 678 511 700 c 0xe8
 511 727 510 754 504 779 c 0
 492 820 465 870 424 882 c 1
541 906 m 1
 571 900 593 878 609 854 c 0
 624 832 635 808 641 782 c 0
 647 753 648 723 648 691 c 0
 648 672 648 652 648 633 c 1xe8
 638 546 576 474 522 423 c 1
 536 379 543 322 543 269 c 0xf0
 543 259 542 249 542 240 c 0
 542 197 542 153 536 109 c 0
 529 81 516 65 495 46 c 0
 473 28 452 9 423 4 c 0
 388 -0 353 -2 318 -2 c 0
 265 -2 212 1 159 2 c 0
 121 5 82 9 49 30 c 0
 22 49 -2 71 -13 103 c 0
 -19 123 -20 143 -20 163 c 0
 -20 179 -19 195 -18 211 c 0
 -14 251 -8 290 14 325 c 0
 26 342 36 361 49 378 c 0
 64 397 84 411 100 429 c 0
 136 463 170 499 207 532 c 1
 338 521 l 1
 314 557 291 595 274 637 c 0
 260 659 252 683 248 709 c 0
 244 732 244 756 244 780 c 0
 244 785 244 791 244 796 c 0
 244 820 245 843 252 867 c 0
 264 894 289 901 317 905 c 0
 348 907 380 908 412 908 c 0
 455 908 498 907 541 906 c 1
EndSplineSet
Validated: 1
EndChar

StartChar: nine
Encoding: 57 57 64
Width: 680
VWidth: 1024
Flags: W
HStem: 25 100<187.624 232.333> 641 20G<399.5 423>
VStem: 4.81543 128.992<544.774 677.133> 521.25 129<122.839 437.984>
LayerCount: 2
Fore
SplineSet
370 836 m 5
 352 823 333 810 315 798 c 4
 261 759 202 727 154 678 c 4
 140.366210938 659.5546875 133.807617188 637.89453125 133.807617188 615.081054688 c 4
 133.807617188 609.447265625 134.208007812 603.743164062 135 598 c 4
 140 565 157 540 176 515 c 5
 201 490 231 471 263 457 c 4
 268 455 274 453 280 451 c 4
 325 470 354 515 373 560 c 4
 387 592 395 626 404 661 c 5
 423 660 l 6
 422 661 422 662 422 663 c 4
 402 720 384 774 370 836 c 5
358 934 m 5
 486 917 l 6
 483 915 480 913 477 911 c 6
 484 911 l 5
 492 871 500 831 511 792 c 4
 522 750 536 709 551 669 c 4
 563 627 576 588 594 549 c 4
 612 514 618 475 630 438 c 4
 649 384 650 323 650 254 c 4
 650 238.5 650.25 222.75 650.25 207 c 4
 650.25 191.25 650 175.5 649 160 c 4
 642 122 618 98 591 78 c 4
 559 56 521 48 485 38 c 4
 434.140625 26.2158203125 382.895507812 23.6640625 331.504882812 23.6640625 c 4
 300.040039062 23.6640625 268.51953125 24.6201171875 237 25 c 5
 208 29 190 42 170 64 c 4
 155 82 144 104 132 125 c 5
 261 134 l 5
 272 114 283 93 298 76 c 4
 309 66 321 58 334 54 c 5
 343 55 351 56 357 58 c 4
 393 67 430 75 463 93 c 4
 488 109 512 128 520 162 c 5
 521 177 521.25 192.25 521.25 207.625 c 4
 521.25 223 521 238.5 521 254 c 4
 521 322 519 380 501 433 c 4
 494 458 488 483 480 507 c 5
 467 486 452 468 432 450 c 4
 421 440 418 437 405 430 c 4
 378.75 417.75 350.96875 414.3046875 322.745117188 414.3046875 c 4
 286.45703125 414.3046875 249.4375 420 214 420 c 4
 187 422 160 427 135 440 c 4
 103 456 71 476 47 505 c 4
 28 532 11 561 6 596 c 4
 5.2158203125 602.47265625 4.8154296875 608.946289062 4.8154296875 615.381835938 c 4
 4.8154296875 641.75390625 11.5302734375 667.4921875 26 690 c 5
 72 742 133 773 187 813 c 4
 244 852 302 891 358 934 c 5
EndSplineSet
Validated: 1
EndChar

StartChar: zero
Encoding: 48 48 65
Width: 592
VWidth: 1024
Flags: W
HStem: 6.95117 21.1689G<116.708 150.556 287.7 301.786> 768 21G<259 286> 823 59.6865<335.311 386.157>
VStem: -10 147<58.1545 478.037> 398 148<206.17 812.828>
LayerCount: 2
Fore
SplineSet
465 871 m 5
 482 861 499 851 511 836 c 4
 539 803 544 781 545 739 c 4
 546 660 546 581 546 502 c 4
 545 353 550 193 477 105 c 4
 442 65 408 36 356 20 c 4
 316.639648438 9.3095703125 310.100585938 7.1201171875 293.470703125 7.1201171875 c 4
 281.9296875 7.1201171875 265.528320312 8.173828125 229.924804688 8.173828125 c 4
 211.252929688 8.173828125 187.30078125 7.8837890625 156 7 c 4
 153.83203125 6.9677734375 151.651367188 6.951171875 149.4609375 6.951171875 c 4
 83.955078125 6.951171875 9.5146484375 21.8447265625 -5 77 c 4
 -9.208984375 99.4501953125 -10.1376953125 122.337890625 -10.1376953125 145.356445312 c 4
 -10.1376953125 163.512695312 -9.5595703125 181.75 -9.5595703125 199.918945312 c 4
 -9.5595703125 207.963867188 -9.6728515625 215.995117188 -10 224 c 4
 -10 282 -10 340 -3 398 c 4
 8 480 28 560 57 637 c 4
 78 704 102 772 144 830 c 5
 202 824 l 5
 207 827 211 830 216 834 c 4
 221 839 226 845 232 849 c 4
 247 859 268 855 284 864 c 4
 291 866 312 873 319 874 c 4
 348.89453125 880.737304688 373.6484375 882.686523438 392.290039062 882.686523438 c 4
 417.922851562 882.686523438 432 879 432 879 c 5
 465 871 l 5
365 823 m 4
 364 823 363 822 362 821 c 4
 334 797 297 779 275 768 c 5
 259 770 l 5
 234 727 219 679 204 633 c 4
 176 556 155 477 144 396 c 4
 137 339 137 281 137 224 c 4
 137.53515625 215.444335938 137.719726562 206.856445312 137.719726562 198.254882812 c 4
 137.719726562 178.84765625 136.77734375 159.364257812 136.77734375 140.001953125 c 4
 136.77734375 119.796875 137.803710938 99.72265625 142 80 c 4
 151 53 179 44 205 38 c 5
 257 50 296 79 331 116 c 4
 365 155 378 205 387 255 c 4
 398 337 398 419 398 502 c 4
 398.5 541.5 398.75 581 398.75 620.5 c 4
 398.75 660 398.5 699.5 398 739 c 4
 396 778 398 799 365 823 c 4
EndSplineSet
Validated: 1
EndChar

StartChar: colon
Encoding: 58 58 66
Width: 250
VWidth: 1024
Flags: W
HStem: 22.3125 159.406<19.03 146.438> 491.844 159.406<19.03 146.438>
VStem: -0.625 169.719
LayerCount: 2
Fore
SplineSet
-0.625 181.71875 m 1
 146.4375 181.71875 l 1
 159.0625 92.875 l 2
 162.40058 69.35769 165.75567 45.8298 169.09375 22.3125 c 1
 22 22.3125 l 1
 18.66192 45.8298 15.33808 69.35769 12 92.875 c 2
 -0.625 181.71875 l 1
-0.625 651.25 m 1
 146.4375 651.25 l 1
 159.0625 562.40625 l 2
 162.40058 538.88894 165.75567 515.36105 169.09375 491.84375 c 1
 22 491.84375 l 1
 18.66192 515.36105 15.33808 538.88894 12 562.40625 c 2
 -0.625 651.25 l 1
EndSplineSet
Validated: 1
EndChar

StartChar: semicolon
Encoding: 59 59 67
Width: 250
VWidth: 1024
Flags: W
HStem: 492 159<18.9556 146>
VStem: 55.2127 147<-53.1275 127.972>
LayerCount: 2
Fore
SplineSet
22 196 m 1
 169 196 l 1
 172 157 183 119 195 82 c 0
 199.529663145 62.0694821614 202.212719952 43.1648567332 202.212719952 24.4496732478 c 0
 202.212719952 1.84791353961 198.299572653 -20.4775515241 189 -44 c 0
 178 -73 155 -92 131 -111 c 2
 118 -120 l 1
 -28 -105 l 2
 -24 -103 -20 -100 -16 -97 c 0
 6 -80 31 -65 42 -38 c 0
 51.2995726533 -17.759753637 55.2127199515 3.07898443211 55.2127199515 24.1888190836 c 0
 55.2127199515 41.6686274679 52.5296631451 59.334313734 48 77 c 0
 36 116 25 155 22 196 c 1
-1 651 m 1
 146 651 l 1
 159 562 l 2
 162 539 166 515 169 492 c 1
 22 492 l 1
 19 515 15 539 12 562 c 2
 -1 651 l 1
EndSplineSet
Validated: 1
EndChar

StartChar: period
Encoding: 46 46 68
Width: 250
VWidth: 1024
Flags: W
HStem: 22.3125 159.406<19.03 146.438>
VStem: -0.625 169.719
LayerCount: 2
Fore
SplineSet
-0.625 181.71875 m 1
 146.4375 181.71875 l 1
 159.0625 92.875 l 2
 162.40058 69.35769 165.75567 45.8298 169.09375 22.3125 c 1
 22 22.3125 l 1
 18.66192 45.8298 15.33808 69.35769 12 92.875 c 2
 -0.625 181.71875 l 1
EndSplineSet
Validated: 1
EndChar

StartChar: comma
Encoding: 44 44 69
Width: 250
VWidth: 1024
Flags: W
HStem: -120 316
VStem: 37.2127 147<-53.1275 127.972>
LayerCount: 2
Fore
SplineSet
151 196 m 1
 154 157 165 119 177 82 c 0
 181.529663145 62.0694821614 184.212719952 42.9596782511 184.212719952 24.1129546241 c 0
 184.212719952 1.35233787475 180.299572653 -21.0245852096 171 -44 c 0
 160 -73 137 -92 113 -111 c 0
 108 -114 104 -117 100 -120 c 2
 -46 -105 l 1
 -42 -103 -38 -100 -34 -97 c 0
 -12 -80 13 -65 24 -38 c 0
 33.2995726533 -17.759753637 37.2127199515 3.07898443211 37.2127199515 24.1888190836 c 0
 37.2127199515 41.6686274679 34.5296631451 59.334313734 30 77 c 0
 18 116 7 155 4 196 c 1
 151 196 l 1
EndSplineSet
Validated: 1
EndChar

StartChar: hyphen
Encoding: 45 45 70
Width: 631
VWidth: 1024
Flags: W
HStem: 294 179
LayerCount: 2
Fore
SplineSet
479 473 m 1
 609 413 l 1
 345 377 345 351 186 294 c 1
 -17 360 l 1
 221 433 267 455 479 473 c 1
EndSplineSet
Validated: 1
EndChar
